<svg xmlns:xlink="http://www.w3.org/1999/xlink" width="1834" height="1375" viewBox="0 0 1834 1375" version="1.1"
  xmlns="http://www.w3.org/2000/svg" data-astro-cid-wzmz5lif="">
  <g id="squares" data-astro-cid-wzmz5lif="">
    <path id="square-three"
      d="M1762.24,1101.03c-3.679,0 -7.354,0.942 -10.634,2.833l-48.9,28.238c-0.566,0.329 -0.654,0.85 -0.654,1.125c0,0.283 0.088,0.804 0.654,1.133l48.905,28.234l0.004,-0c6.55,3.783 14.696,3.783 21.254,-0l48.904,-28.234c0.563,-0.329 0.65,-0.85 0.65,-1.133c0,-0.275 -0.087,-0.796 -0.65,-1.125l-48.908,-28.238c-3.279,-1.891 -6.954,-2.833 -10.625,-2.833Zm-0,72.154c-5.017,0 -10.034,-1.291 -14.509,-3.879l-48.9,-28.233c-2.837,-1.634 -4.533,-4.571 -4.533,-7.846c0,-3.271 1.696,-6.204 4.533,-7.842l48.9,-28.233c8.946,-5.163 20.067,-5.167 29.009,-0l48.9,28.233c2.841,1.638 4.533,4.571 4.533,7.842c0,3.275 -1.692,6.212 -4.533,7.846l-48.896,28.233c-4.471,2.588 -9.488,3.879 -14.504,3.879Z"
      style="" data-astro-cid-wzmz5lif="" fill="url(&quot;#_Linear1&quot;)"></path>
    <path id="square-two"
      d="M1602.69,999.96c12.15,7.009 27.229,7.009 39.379,0l84.158,-48.587c2.271,-1.317 2.517,-3.492 2.517,-4.367c-0,-0.875 -0.246,-3.05 -2.517,-4.362l-84.162,-48.588c-12.15,-7.008 -27.23,-7.008 -39.38,0l-84.158,48.588c-2.271,1.312 -2.517,3.487 -2.517,4.362c0,0.875 0.246,3.046 2.517,4.363l84.163,48.591Zm19.687,13.009c-8.15,-0 -16.296,-2.096 -23.562,-6.296l-84.159,-48.592c-4.008,-2.312 -6.4,-6.45 -6.4,-11.075c0,-4.625 2.392,-8.766 6.4,-11.075l84.154,-48.587c14.525,-8.396 32.592,-8.4 47.13,-0l84.162,48.587c4.004,2.309 6.396,6.45 6.396,11.071c-0,4.625 -2.388,8.767 -6.392,11.083l-84.162,48.588c-7.267,4.196 -15.421,6.296 -23.567,6.296Z"
      style="" data-astro-cid-wzmz5lif="" fill="url(&quot;#_Linear2&quot;)"></path>
    <path id="square-one"
      d="M117.281,965.269c-6.808,-0 -13.616,1.754 -19.691,5.254l-84.163,48.592c-2.271,1.312 -2.512,3.483 -2.512,4.358c-0,0.875 0.241,3.054 2.516,4.367l84.163,48.587c12.15,7.008 27.229,7.008 39.379,0l84.154,-48.587c2.275,-1.313 2.521,-3.488 2.521,-4.363c-0,-0.875 -0.246,-3.046 -2.521,-4.358l-84.158,-48.596c-6.075,-3.5 -12.884,-5.254 -19.688,-5.254Zm0.004,124.166c-8.15,0 -16.3,-2.091 -23.566,-6.291l-84.163,-48.588c-4.008,-2.316 -6.4,-6.458 -6.4,-11.087c0,-4.621 2.396,-8.759 6.4,-11.071l84.159,-48.588c14.533,-8.4 32.6,-8.4 47.129,0l84.158,48.592c4.008,2.313 6.4,6.45 6.4,11.075c0,4.629 -2.392,8.767 -6.4,11.079l-84.154,48.588c-7.263,4.196 -15.417,6.291 -23.563,6.291Z"
      style="" data-astro-cid-wzmz5lif="" fill="url(&quot;#_Linear3&quot;)"></path>
    <path id="square-cup"
      d="M446.747,559.341c-9.454,0.004 -18.908,2.602 -27.342,7.781l-116.848,71.904c-3.153,1.942 -3.487,5.152 -3.487,6.446c0.001,1.294 0.338,4.516 3.498,6.456l116.907,71.801c16.877,10.357 37.817,10.349 54.686,-0.022l116.836,-71.897c3.158,-1.943 3.499,-5.159 3.498,-6.453c-0,-1.294 -0.343,-4.504 -3.503,-6.444l-116.901,-71.813c-8.439,-5.173 -17.895,-7.763 -27.344,-7.759Zm0.082,183.614c-11.318,0.004 -22.638,-3.084 -32.731,-9.291l-116.907,-71.801c-5.568,-3.424 -8.892,-9.547 -8.895,-16.393c-0.002,-6.833 3.322,-12.952 8.881,-16.374l116.842,-71.898c20.178,-12.43 45.267,-12.44 65.449,-0.027l116.901,71.808c5.568,3.417 8.891,9.534 8.894,16.374c0.003,6.845 -3.316,12.965 -8.881,16.387l-116.836,71.897c-10.083,6.209 -21.405,9.313 -32.717,9.318Z"
      style="" data-astro-cid-wzmz5lif="" fill="url(&quot;#_Linear4&quot;)"></path>
    <path id="square-laptop"
      d="M983.344,1364.14c-7.034,-0 -13.784,-1.459 -18.938,-4.438l0.004,0l-686.825,-396.537c-5.608,-3.238 -8.7,-7.909 -8.7,-13.146c0,-6.025 4.192,-11.9 11.5,-16.121l260.815,-160.74l7.725,4.462l-264.635,162.982c-4.8,2.775 -7.646,6.288 -7.646,9.413c-0,3.016 2.621,5.166 4.816,6.437l686.825,396.533l0.005,0c3.916,2.267 9.295,3.371 14.97,3.371c7.03,0 14.505,-1.696 20.2,-4.987l468.184,-274.3c4.8,-2.771 7.646,-6.284 7.646,-9.413c-0,-3.016 -2.617,-5.162 -4.817,-6.433l-261.96,-161.426l7.75,-4.475l258.085,159.188c5.612,3.234 8.7,7.905 8.7,13.146c-0,6.021 -4.192,11.892 -11.504,16.113l-468.179,274.3c-6.963,4.021 -15.692,6.071 -24.021,6.071Z"
      style="" data-astro-cid-wzmz5lif="" fill="url(&quot;#_Linear5&quot;)"></path>
  </g>
  <path id="laptop-shadow"
    d="M790.681,714.229l601.788,343.015c8.775,5.062 7.675,13.908 -2.454,19.758l-386.238,222.992c-5.537,3.2 -12.633,4.837 -19.358,4.837c-5.571,0 -10.888,-1.125 -14.859,-3.416l-601.795,-347.446c-8.775,-5.067 -7.671,-13.913 2.458,-19.754l386.233,-218.565c5.538,-3.2 12.634,-4.842 19.359,-4.842c5.57,-0 10.891,1.125 14.866,3.421Z"
    style="" data-astro-cid-wzmz5lif="" fill="color(srgb 0.829804 0.812941 0.912549)"></path>
  <g id="laptop" data-astro-cid-wzmz5lif="">
    <g id="base" data-astro-cid-wzmz5lif="">
      <path id="base-border"
        d="M983.681,1220.09c-5.529,-0 -10.808,-1.117 -14.754,-3.396l-543.996,-314.075l-38.191,-22.046l-7.725,-4.462l-7.638,-4.409c-3.379,-1.954 -5.267,-4.479 -5.742,-7.166l-0.016,0.008l-3.575,-17.842c0.591,2.538 2.462,4.904 5.658,6.767l0.004,-0c0.021,0.012 0.038,0.025 0.059,0.033l601.795,347.446c3.971,2.296 9.292,3.421 14.863,3.421c6.646,-0 13.646,-1.6 19.154,-4.721c0.067,-0.037 0.133,-0.075 0.2,-0.117l386.238,-222.991c0.025,-0.017 0.05,-0.034 0.075,-0.046c4.72,-2.742 7.462,-6.138 8.137,-9.492l-3.662,17.417l-0.021,-0.029c-0.675,3.35 -3.392,6.746 -8.125,9.475l-6.55,3.783l-7.75,4.475l-37.559,21.683l-331.654,191.48c-5.5,3.175 -12.546,4.804 -19.225,4.804Z"
        style="" data-astro-cid-wzmz5lif="" fill="url(&quot;#_Radial6&quot;)"></path>
      <path id="base-top"
        d="M984.423,1204.37c-5.571,-0 -10.892,-1.125 -14.863,-3.421c3.971,2.296 9.292,3.421 14.863,3.421Zm-0.004,-4.688c-5.571,0 -10.888,-1.12 -14.859,-3.416l-601.795,-347.45c-2.992,-1.725 -4.742,-3.9 -5.475,-6.238c-1.155,4.017 0.529,8.046 5.412,10.892c-3.196,-1.863 -5.067,-4.229 -5.658,-6.767c-1.013,-4.375 1.783,-9.262 8.179,-12.958l386.233,-222.988c5.538,-3.2 12.634,-4.841 19.359,-4.841c5.57,-0 10.891,1.125 14.866,3.421l2.95,1.704c0.442,0.304 0.896,0.591 1.359,0.858l598.745,345.683c3.717,2.6 5.184,5.988 4.492,9.421c-0.675,3.354 -3.417,6.75 -8.137,9.492c6.625,-3.854 9.262,-8.975 7.854,-13.471c-0.904,3.138 -3.496,6.267 -7.929,8.829l-386.238,222.992c-5.537,3.2 -12.633,4.837 -19.358,4.837Zm19.158,-0.033c0.067,-0.037 0.133,-0.075 0.2,-0.117c-0.067,0.042 -0.133,0.08 -0.2,0.117Zm386.438,-223.108c0.025,-0.017 0.05,-0.029 0.075,-0.046c-0.025,0.012 -0.05,0.029 -0.075,0.046Zm-1022.25,-123.038c-0.021,-0.008 -0.038,-0.021 -0.059,-0.033c0.021,0.012 0.038,0.025 0.059,0.033Z"
        style="" data-astro-cid-wzmz5lif="" fill="url(&quot;#_Radial7&quot;)"></path>
      <path id="base-highlight"
        d="M1390.02,971.856l-386.238,222.992c-10.125,5.85 -25.446,6.483 -34.217,1.421l-601.795,-347.45c-2.992,-1.725 -4.742,-3.9 -5.475,-6.238c-1.159,4.034 0.541,8.079 5.475,10.925l601.795,347.446c8.771,5.067 24.092,4.433 34.217,-1.417l386.238,-222.991c6.679,-3.859 9.341,-9 7.929,-13.517c-0.904,3.138 -3.496,6.267 -7.929,8.829Z"
        style="fill-rule: nonzero;" data-astro-cid-wzmz5lif="" fill="#DCE0E8"></path>
      <g id="keyboard" data-astro-cid-wzmz5lif="">
        <path
          d="M657.573,797.76c-1.033,0 -2.021,-0.212 -2.763,-0.637l-20.316,-11.729c-0.738,-0.425 -1.1,-0.996 -1.1,-1.596c-0,-0.725 0.529,-1.483 1.558,-2.079l23.983,-13.846c1.03,-0.596 2.346,-0.9 3.596,-0.9c1.038,-0 2.025,0.208 2.767,0.637l20.317,11.73c0.737,0.425 1.1,0.995 1.1,1.595c0.004,0.721 -0.525,1.484 -1.555,2.075l-23.983,13.85c-1.033,0.592 -2.35,0.9 -3.604,0.9Z"
          data-astro-cid-wzmz5lif="" fill="color(srgb 0.117647 0.145882 0.258431)"></path>
        <path
          d="M688.952,815.873c-1.037,-0 -2.025,-0.208 -2.762,-0.633l-20.317,-11.734c-0.742,-0.425 -1.104,-0.996 -1.104,-1.591c-0,-0.725 0.529,-1.488 1.558,-2.08l23.983,-13.85c1.03,-0.591 2.346,-0.895 3.596,-0.895c1.038,-0 2.029,0.208 2.767,0.637l20.317,11.725c0.741,0.429 1.104,1 1.104,1.6c-0,0.721 -0.529,1.483 -1.559,2.075l-23.983,13.846c-1.029,0.596 -2.35,0.9 -3.6,0.9Z"
          data-astro-cid-wzmz5lif="" fill="color(srgb 0.117647 0.145882 0.258431)"></path>
        <path
          d="M720.327,833.99c-1.033,-0 -2.025,-0.209 -2.762,-0.634l-20.317,-11.733c-0.738,-0.425 -1.1,-0.996 -1.104,-1.596c-0,-0.721 0.529,-1.483 1.558,-2.079l23.983,-13.846c1.034,-0.596 2.35,-0.9 3.605,-0.9c1.033,0 2.02,0.208 2.762,0.638l20.317,11.729c0.737,0.429 1.1,1 1.1,1.596c-0,0.725 -0.529,1.483 -1.559,2.079l-23.983,13.846c-1.029,0.595 -2.35,0.9 -3.6,0.9Z"
          data-astro-cid-wzmz5lif="" fill="color(srgb 0.117647 0.145882 0.258431)"></path>
        <path
          d="M763.723,819.031c-1.038,0 -2.029,-0.212 -2.767,-0.637l-20.316,-11.734c-0.738,-0.425 -1.1,-0.995 -1.1,-1.591c-0,-0.725 0.529,-1.484 1.558,-2.084l20.129,-11.62c1.029,-0.592 2.354,-0.896 3.604,-0.896c1.034,-0 2.021,0.208 2.759,0.633l20.32,11.729c0.738,0.425 1.1,1 1.1,1.596c0,0.725 -0.525,1.488 -1.558,2.079l-20.129,11.621c-1.029,0.596 -2.354,0.904 -3.6,0.904Z"
          data-astro-cid-wzmz5lif="" fill="color(srgb 0.117647 0.145882 0.258431)"></path>
        <path
          d="M795.098,837.144c-1.038,-0 -2.025,-0.209 -2.767,-0.638l-20.321,-11.729c-0.737,-0.425 -1.095,-0.996 -1.095,-1.596c-0,-0.721 0.529,-1.483 1.562,-2.079l20.129,-11.621c1.029,-0.596 2.35,-0.9 3.6,-0.9c1.034,0 2.025,0.209 2.763,0.638l20.316,11.729c0.742,0.425 1.105,0.996 1.105,1.596c-0,0.721 -0.53,1.483 -1.559,2.079l-20.129,11.621c-1.033,0.596 -2.35,0.9 -3.604,0.9Z"
          data-astro-cid-wzmz5lif="" fill="color(srgb 0.117647 0.145882 0.258431)"></path>
        <path
          d="M826.473,855.26c-1.038,0 -2.025,-0.208 -2.763,-0.637l-20.316,-11.729c-0.742,-0.429 -1.104,-1 -1.1,-1.596c-0,-0.721 0.529,-1.483 1.558,-2.079l20.129,-11.621c1.029,-0.596 2.35,-0.9 3.6,-0.9c1.038,-0 2.025,0.208 2.763,0.633l20.316,11.734c0.742,0.425 1.105,0.995 1.105,1.595c-0,0.721 -0.53,1.484 -1.559,2.075l-20.129,11.625c-1.029,0.596 -2.35,0.9 -3.604,0.9Z"
          data-astro-cid-wzmz5lif="" fill="color(srgb 0.117647 0.145882 0.258431)"></path>
        <path
          d="M857.852,873.377c-1.037,0 -2.029,-0.212 -2.767,-0.637l-20.316,-11.734c-0.742,-0.425 -1.1,-0.996 -1.1,-1.591c-0,-0.725 0.529,-1.484 1.558,-2.084l20.129,-11.621c1.034,-0.591 2.35,-0.895 3.6,-0.895c1.038,-0 2.025,0.208 2.767,0.633l20.317,11.729c0.737,0.429 1.1,1 1.1,1.596c-0,0.725 -0.53,1.487 -1.559,2.079l-20.129,11.621c-1.029,0.596 -2.35,0.904 -3.6,0.904Z"
          data-astro-cid-wzmz5lif="" fill="color(srgb 0.117647 0.145882 0.258431)"></path>
        <path
          d="M889.227,891.49c-1.037,-0 -2.029,-0.209 -2.767,-0.638l-20.316,-11.729c-0.738,-0.425 -1.1,-0.996 -1.1,-1.596c-0,-0.721 0.529,-1.483 1.558,-2.079l20.133,-11.621c1.03,-0.596 2.346,-0.9 3.6,-0.9c1.034,0 2.021,0.208 2.763,0.638l20.317,11.729c0.737,0.425 1.1,0.996 1.1,1.596c-0,0.72 -0.525,1.483 -1.555,2.079l-20.133,11.621c-1.029,0.595 -2.35,0.9 -3.6,0.9Z"
          data-astro-cid-wzmz5lif="" fill="color(srgb 0.117647 0.145882 0.258431)"></path>
        <path
          d="M920.598,909.606c-1.033,0 -2.021,-0.208 -2.763,-0.637l-20.316,-11.729c-0.738,-0.43 -1.1,-1 -1.1,-1.596c0.004,-0.725 0.529,-1.488 1.562,-2.079l20.129,-11.621c1.03,-0.596 2.35,-0.9 3.605,-0.9c1.033,-0 2.02,0.208 2.758,0.633l20.317,11.733c0.741,0.425 1.104,0.996 1.104,1.596c-0,0.721 -0.529,1.484 -1.559,2.079l-20.129,11.621c-1.033,0.592 -2.354,0.9 -3.608,0.9Z"
          data-astro-cid-wzmz5lif="" fill="color(srgb 0.117647 0.145882 0.258431)"></path>
        <path
          d="M951.977,927.719c-1.037,-0 -2.025,-0.209 -2.762,-0.634l-20.317,-11.733c-0.742,-0.425 -1.104,-0.996 -1.1,-1.596c-0,-0.721 0.529,-1.483 1.558,-2.079l20.129,-11.621c1.03,-0.596 2.35,-0.9 3.6,-0.9c1.038,0 2.025,0.209 2.763,0.638l20.317,11.729c0.741,0.429 1.104,0.996 1.104,1.596c-0,0.721 -0.529,1.483 -1.559,2.079l-20.129,11.621c-1.029,0.596 -2.35,0.9 -3.604,0.9Z"
          data-astro-cid-wzmz5lif="" fill="color(srgb 0.117647 0.145882 0.258431)"></path>
        <path
          d="M983.352,945.835c-1.033,0 -2.025,-0.208 -2.762,-0.637l-20.317,-11.729c-0.738,-0.421 -1.1,-0.996 -1.1,-1.596c-0,-0.721 0.529,-1.483 1.558,-2.075l20.129,-11.625c1.034,-0.596 2.35,-0.9 3.6,-0.9c1.038,-0 2.025,0.208 2.767,0.637l20.317,11.73c0.737,0.429 1.1,0.995 1.1,1.595c-0,0.721 -0.525,1.484 -1.559,2.084l-20.129,11.621c-1.029,0.591 -2.35,0.895 -3.604,0.895Z"
          data-astro-cid-wzmz5lif="" fill="color(srgb 0.117647 0.145882 0.258431)"></path>
        <path
          d="M1014.73,963.948c-1.037,-0 -2.025,-0.208 -2.766,-0.633l-20.317,-11.73c-0.738,-0.429 -1.1,-1 -1.1,-1.595c-0,-0.725 0.529,-1.488 1.562,-2.08l20.13,-11.62c1.029,-0.6 2.345,-0.905 3.6,-0.905c1.033,0 2.025,0.213 2.762,0.638l20.317,11.733c0.737,0.425 1.1,0.996 1.1,1.592c0.004,0.721 -0.525,1.483 -1.554,2.079l-20.13,11.621c-1.033,0.596 -2.354,0.9 -3.604,0.9Z"
          data-astro-cid-wzmz5lif="" fill="color(srgb 0.117647 0.145882 0.258431)"></path>
        <path
          d="M1046.11,982.065c-1.037,-0 -2.025,-0.209 -2.762,-0.634l-20.321,-11.733c-0.738,-0.425 -1.1,-0.996 -1.1,-1.596c0.004,-0.721 0.533,-1.483 1.562,-2.079l20.13,-11.621c1.029,-0.596 2.35,-0.9 3.6,-0.9c1.033,0 2.025,0.208 2.762,0.638l20.317,11.729c0.741,0.425 1.104,0.996 1.104,1.596c-0,0.72 -0.529,1.483 -1.558,2.079l-20.13,11.621c-1.033,0.595 -2.354,0.9 -3.604,0.9Z"
          data-astro-cid-wzmz5lif="" fill="color(srgb 0.117647 0.145882 0.258431)"></path>
        <path
          d="M809.952,810.452c-1.037,0 -2.025,-0.208 -2.762,-0.633l-20.317,-11.729c-0.742,-0.43 -1.104,-1 -1.104,-1.6c-0,-0.721 0.529,-1.484 1.558,-2.075l20.133,-11.625c1.034,-0.596 2.35,-0.9 3.6,-0.9c1.038,-0 2.025,0.208 2.763,0.633l20.317,11.733c0.741,0.425 1.104,1 1.104,1.596c-0,0.721 -0.529,1.483 -1.559,2.079l-20.133,11.625c-1.029,0.592 -2.35,0.896 -3.6,0.896Z"
          data-astro-cid-wzmz5lif="" fill="color(srgb 0.117647 0.145882 0.258431)"></path>
        <path
          d="M778.11,792.069c-1.037,-0 -2.025,-0.209 -2.766,-0.638l-20.317,-11.729c-0.737,-0.429 -1.1,-1 -1.1,-1.596c0,-0.721 0.525,-1.483 1.558,-2.079l20.134,-11.621c1.025,-0.596 2.35,-0.9 3.6,-0.9c1.033,0 2.021,0.209 2.758,0.634l20.321,11.733c0.737,0.425 1.1,0.996 1.1,1.596c-0,0.721 -0.525,1.483 -1.558,2.075l-20.134,11.621c-1.029,0.6 -2.35,0.904 -3.596,0.904Z"
          data-astro-cid-wzmz5lif="" fill="color(srgb 0.117647 0.145882 0.258431)"></path>
        <path
          d="M746.215,773.652c-1.038,0 -2.03,-0.208 -2.767,-0.637l-43.758,-25.259c-0.742,-0.429 -1.1,-1 -1.1,-1.6c-0,-0.721 0.529,-1.483 1.554,-2.075l20.133,-11.625c1.033,-0.596 2.35,-0.9 3.604,-0.9c1.034,0 2.021,0.209 2.763,0.634l43.758,25.266c0.738,0.425 1.1,1 1.1,1.596c0,0.721 -0.525,1.483 -1.558,2.079l-20.134,11.625c-1.029,0.592 -2.345,0.896 -3.595,0.896Z"
          data-astro-cid-wzmz5lif="" fill="color(srgb 0.117647 0.145882 0.258431)"></path>
        <path
          d="M768.506,751.256c-1.033,0 -2.029,-0.208 -2.766,-0.633l-35.509,-20.504c-0.737,-0.425 -1.1,-1 -1.1,-1.596c0,-0.721 0.529,-1.483 1.559,-2.079l20.129,-11.625c1.029,-0.592 2.35,-0.896 3.6,-0.896c1.033,-0 2.025,0.208 2.766,0.637l35.509,20.5c0.741,0.425 1.104,0.996 1.104,1.596c-0,0.721 -0.529,1.484 -1.558,2.079l-20.13,11.625c-1.037,0.592 -2.354,0.896 -3.604,0.896Z"
          data-astro-cid-wzmz5lif="" fill="color(srgb 0.117647 0.145882 0.258431)"></path>
        <path
          d="M841.327,828.569c-1.037,-0 -2.025,-0.209 -2.762,-0.634l-20.317,-11.733c-0.738,-0.425 -1.1,-0.996 -1.1,-1.596c-0,-0.721 0.525,-1.483 1.554,-2.075l20.133,-11.629c1.034,-0.592 2.355,-0.896 3.605,-0.896c1.033,0 2.02,0.209 2.762,0.634l20.317,11.729c0.737,0.429 1.1,1 1.1,1.6c-0,0.721 -0.525,1.483 -1.559,2.075l-20.133,11.625c-1.029,0.596 -2.35,0.9 -3.6,0.9Z"
          data-astro-cid-wzmz5lif="" fill="color(srgb 0.117647 0.145882 0.258431)"></path>
        <path
          d="M872.706,846.685c-1.033,0 -2.025,-0.212 -2.766,-0.641l-20.317,-11.725c-0.738,-0.429 -1.1,-1 -1.1,-1.596c-0,-0.725 0.525,-1.483 1.558,-2.079l20.134,-11.625c1.029,-0.596 2.35,-0.9 3.6,-0.9c1.037,-0 2.025,0.208 2.762,0.637l20.317,11.729c0.737,0.43 1.1,1 1.1,1.596c0.004,0.725 -0.525,1.484 -1.554,2.079l-20.134,11.625c-1.033,0.592 -2.35,0.9 -3.6,0.9Z"
          data-astro-cid-wzmz5lif="" fill="color(srgb 0.117647 0.145882 0.258431)"></path>
        <path
          d="M904.085,864.798c-1.037,-0 -2.029,-0.208 -2.77,-0.638l-20.313,-11.725c-0.742,-0.429 -1.104,-1 -1.104,-1.6c-0,-0.72 0.529,-1.483 1.558,-2.075l20.134,-11.625c1.029,-0.595 2.35,-0.9 3.6,-0.9c1.037,0 2.025,0.209 2.762,0.634l20.317,11.733c0.741,0.425 1.104,1 1.104,1.596c-0,0.721 -0.529,1.483 -1.558,2.079l-20.134,11.625c-1.029,0.592 -2.346,0.896 -3.596,0.896Z"
          data-astro-cid-wzmz5lif="" fill="color(srgb 0.117647 0.145882 0.258431)"></path>
        <path
          d="M935.46,882.915c-1.037,-0 -2.029,-0.213 -2.766,-0.638l-20.317,-11.729c-0.742,-0.425 -1.104,-1 -1.104,-1.596c-0,-0.721 0.529,-1.483 1.558,-2.079l20.134,-11.625c1.033,-0.592 2.35,-0.896 3.604,-0.896c1.033,0 2.021,0.208 2.762,0.633l20.317,11.73c0.737,0.429 1.1,1 1.1,1.6c-0,0.72 -0.529,1.483 -1.558,2.075l-20.134,11.625c-1.029,0.595 -2.346,0.9 -3.596,0.9Z"
          data-astro-cid-wzmz5lif="" fill="color(srgb 0.117647 0.145882 0.258431)"></path>
        <path
          d="M966.835,901.027c-1.037,0 -2.025,-0.208 -2.766,-0.637l-20.317,-11.73c-0.737,-0.425 -1.1,-0.995 -1.1,-1.595c0,-0.721 0.525,-1.484 1.558,-2.08l20.13,-11.62c1.033,-0.596 2.354,-0.9 3.604,-0.9c1.033,-0 2.025,0.208 2.762,0.637l20.317,11.729c0.737,0.429 1.1,1 1.1,1.596c-0,0.725 -0.525,1.483 -1.558,2.079l-20.134,11.621c-1.029,0.596 -2.346,0.9 -3.596,0.9Z"
          data-astro-cid-wzmz5lif="" fill="color(srgb 0.117647 0.145882 0.258431)"></path>
        <path
          d="M998.21,919.144c-1.037,-0 -2.025,-0.209 -2.766,-0.638l-20.317,-11.729c-0.737,-0.429 -1.1,-1 -1.1,-1.596c0,-0.721 0.525,-1.483 1.558,-2.079l20.134,-11.621c1.029,-0.596 2.35,-0.9 3.6,-0.9c1.037,0 2.025,0.209 2.762,0.634l20.317,11.733c0.742,0.425 1.104,0.996 1.104,1.596c0,0.721 -0.529,1.483 -1.558,2.075l-20.134,11.625c-1.033,0.596 -2.35,0.9 -3.6,0.9Z"
          data-astro-cid-wzmz5lif="" fill="color(srgb 0.117647 0.145882 0.258431)"></path>
        <path
          d="M1029.59,937.26c-1.037,0 -2.025,-0.212 -2.762,-0.637l-20.317,-11.729c-0.741,-0.429 -1.104,-1 -1.104,-1.596c0,-0.721 0.529,-1.483 1.558,-2.083l20.134,-11.621c1.029,-0.592 2.35,-0.896 3.6,-0.896c1.037,-0 2.025,0.208 2.762,0.633l20.317,11.729c0.742,0.425 1.104,1 1.104,1.596c0,0.729 -0.529,1.488 -1.558,2.079l-20.134,11.621c-1.029,0.596 -2.35,0.904 -3.6,0.904Z"
          data-astro-cid-wzmz5lif="" fill="color(srgb 0.117647 0.145882 0.258431)"></path>
        <path
          d="M1060.96,955.373c-1.033,-0 -2.025,-0.208 -2.762,-0.638l-20.317,-11.729c-0.741,-0.421 -1.104,-0.996 -1.104,-1.596c0,-0.72 0.529,-1.483 1.558,-2.075l20.134,-11.62c1.033,-0.6 2.35,-0.905 3.604,-0.905c1.033,0 2.021,0.209 2.762,0.638l20.317,11.729c0.738,0.429 1.1,0.996 1.1,1.596c0,0.721 -0.525,1.483 -1.558,2.083l-20.134,11.617c-1.029,0.596 -2.35,0.9 -3.6,0.9Z"
          data-astro-cid-wzmz5lif="" fill="color(srgb 0.117647 0.145882 0.258431)"></path>
        <path
          d="M1092.34,973.49c-1.038,-0 -2.025,-0.209 -2.767,-0.638l-20.317,-11.729c-0.737,-0.429 -1.1,-1 -1.1,-1.596c0,-0.721 0.525,-1.483 1.559,-2.079l20.133,-11.621c1.029,-0.596 2.35,-0.9 3.6,-0.9c1.033,0 2.025,0.208 2.762,0.633l20.317,11.734c0.738,0.425 1.1,0.996 1.1,1.596c0,0.72 -0.525,1.483 -1.554,2.075l-20.133,11.625c-1.034,0.595 -2.35,0.9 -3.6,0.9Z"
          data-astro-cid-wzmz5lif="" fill="color(srgb 0.117647 0.145882 0.258431)"></path>
        <path
          d="M1148.12,1005.69c-1.038,-0 -2.025,-0.209 -2.763,-0.634l-44.333,-25.595c-0.738,-0.43 -1.1,-1 -1.1,-1.596c-0,-0.725 0.525,-1.484 1.558,-2.079l20.134,-11.625c1.025,-0.596 2.345,-0.9 3.6,-0.9c1.033,-0 2.025,0.208 2.762,0.637l44.329,25.592c0.738,0.429 1.1,1 1.1,1.596c0,0.725 -0.525,1.483 -1.558,2.079l-20.129,11.625c-1.029,0.596 -2.35,0.9 -3.6,0.9Z"
          data-astro-cid-wzmz5lif="" fill="color(srgb 0.117647 0.145882 0.258431)"></path>
        <path
          d="M1209.21,970.427c-1.037,0 -2.025,-0.212 -2.766,-0.637l-37.417,-21.605c-0.742,-0.425 -1.104,-0.995 -1.1,-1.595c-0,-0.717 0.529,-1.484 1.558,-2.08l20.129,-11.62c1.03,-0.596 2.35,-0.9 3.605,-0.9c1.033,-0 2.02,0.208 2.758,0.637l37.421,21.6c0.737,0.429 1.1,1 1.1,1.596c-0,0.725 -0.529,1.487 -1.563,2.079l-20.129,11.621c-1.029,0.596 -2.346,0.904 -3.596,0.904Z"
          data-astro-cid-wzmz5lif="" fill="color(srgb 0.117647 0.145882 0.258431)"></path>
        <path
          d="M896.281,825.023c-1.037,-0 -2.029,-0.208 -2.771,-0.638l-20.316,-11.725c-0.738,-0.429 -1.1,-1 -1.1,-1.6c-0,-0.72 0.529,-1.479 1.558,-2.075l20.129,-11.625c1.029,-0.595 2.35,-0.9 3.604,-0.9c1.034,0 2.021,0.209 2.759,0.634l20.321,11.733c0.741,0.425 1.1,1 1.1,1.596c-0,0.721 -0.53,1.483 -1.559,2.079l-20.129,11.625c-1.029,0.592 -2.346,0.896 -3.596,0.896Z"
          data-astro-cid-wzmz5lif="" fill="color(srgb 0.117647 0.145882 0.258431)"></path>
        <path
          d="M864.119,806.456c-1.038,0 -2.025,-0.208 -2.763,-0.633l-20.316,-11.729c-0.742,-0.429 -1.105,-1 -1.105,-1.6c0,-0.721 0.53,-1.484 1.559,-2.075l20.129,-11.621c1.033,-0.596 2.35,-0.904 3.604,-0.904c1.033,-0 2.025,0.212 2.767,0.637l20.312,11.734c0.742,0.425 1.104,0.995 1.104,1.591c-0.004,0.725 -0.529,1.484 -1.558,2.084l-20.133,11.62c-1.029,0.592 -2.35,0.896 -3.6,0.896Z"
          data-astro-cid-wzmz5lif="" fill="color(srgb 0.117647 0.145882 0.258431)"></path>
        <path
          d="M831.96,787.894c-1.033,-0 -2.025,-0.209 -2.762,-0.638l-20.317,-11.729c-0.737,-0.429 -1.1,-1 -1.104,-1.596c0,-0.721 0.529,-1.483 1.558,-2.079l20.134,-11.621c1.033,-0.596 2.35,-0.9 3.604,-0.9c1.033,0 2.021,0.209 2.762,0.634l20.317,11.733c0.738,0.425 1.1,0.996 1.1,1.596c0,0.721 -0.525,1.483 -1.558,2.075l-20.134,11.625c-1.029,0.596 -2.345,0.9 -3.6,0.9Z"
          data-astro-cid-wzmz5lif="" fill="color(srgb 0.117647 0.145882 0.258431)"></path>
        <path
          d="M799.81,769.327c-1.037,0 -2.029,-0.208 -2.77,-0.637l-20.317,-11.725c-0.738,-0.43 -1.104,-1 -1.104,-1.6c-0,-0.721 0.533,-1.484 1.562,-2.075l20.134,-11.625c1.029,-0.596 2.345,-0.9 3.6,-0.9c1.033,-0 2.025,0.208 2.762,0.633l20.317,11.733c0.737,0.425 1.1,0.996 1.1,1.596c-0,0.721 -0.525,1.483 -1.554,2.079l-20.134,11.625c-1.029,0.592 -2.346,0.896 -3.596,0.896Z"
          data-astro-cid-wzmz5lif="" fill="color(srgb 0.117647 0.145882 0.258431)"></path>
        <path
          d="M927.656,843.14c-1.037,-0 -2.029,-0.209 -2.766,-0.638l-20.317,-11.729c-0.742,-0.425 -1.104,-0.996 -1.104,-1.596c-0,-0.721 0.529,-1.483 1.558,-2.075l20.129,-11.625c1.034,-0.596 2.354,-0.9 3.604,-0.9c1.038,0 2.025,0.208 2.763,0.633l20.321,11.73c0.737,0.429 1.1,1 1.1,1.6c-0.004,0.72 -0.534,1.483 -1.563,2.075l-20.129,11.625c-1.029,0.595 -2.346,0.9 -3.596,0.9Z"
          data-astro-cid-wzmz5lif="" fill="color(srgb 0.117647 0.145882 0.258431)"></path>
        <path
          d="M959.031,861.256c-1.037,0 -2.025,-0.212 -2.766,-0.641l-20.317,-11.725c-0.738,-0.43 -1.1,-1 -1.1,-1.596c-0.004,-0.725 0.525,-1.488 1.554,-2.084l20.133,-11.62c1.03,-0.592 2.35,-0.9 3.6,-0.9c1.034,-0 2.021,0.208 2.763,0.637l20.321,11.729c0.737,0.429 1.1,1 1.1,1.596c-0,0.725 -0.529,1.483 -1.563,2.079l-20.129,11.625c-1.029,0.592 -2.346,0.9 -3.596,0.9Z"
          data-astro-cid-wzmz5lif="" fill="color(srgb 0.117647 0.145882 0.258431)"></path>
        <path
          d="M990.406,879.369c-1.037,-0 -2.025,-0.209 -2.766,-0.638l-20.317,-11.729c-0.738,-0.429 -1.1,-0.996 -1.1,-1.596c-0,-0.721 0.525,-1.483 1.558,-2.079l20.129,-11.621c1.03,-0.596 2.35,-0.9 3.6,-0.9c1.038,0 2.025,0.209 2.763,0.634l20.321,11.733c0.741,0.425 1.1,0.996 1.1,1.596c-0,0.721 -0.529,1.483 -1.559,2.079l-20.129,11.621c-1.033,0.596 -2.35,0.9 -3.6,0.9Z"
          data-astro-cid-wzmz5lif="" fill="color(srgb 0.117647 0.145882 0.258431)"></path>
        <path
          d="M1021.78,897.485c-1.037,0 -2.025,-0.212 -2.762,-0.637l-20.317,-11.733c-0.742,-0.425 -1.104,-0.996 -1.104,-1.592c-0,-0.721 0.529,-1.483 1.558,-2.083l20.129,-11.621c1.03,-0.592 2.35,-0.896 3.6,-0.896c1.038,-0 2.025,0.208 2.763,0.633l20.321,11.729c0.741,0.43 1.104,1 1.1,1.596c-0,0.725 -0.529,1.488 -1.559,2.079l-20.129,11.621c-1.029,0.596 -2.35,0.904 -3.6,0.904Z"
          data-astro-cid-wzmz5lif="" fill="color(srgb 0.117647 0.145882 0.258431)"></path>
        <path
          d="M1053.16,915.598c-1.033,-0 -2.025,-0.208 -2.762,-0.638l-20.317,-11.729c-0.742,-0.425 -1.104,-0.996 -1.104,-1.596c-0,-0.72 0.529,-1.483 1.558,-2.079l20.129,-11.621c1.034,-0.595 2.35,-0.9 3.6,-0.9c1.038,0 2.025,0.209 2.767,0.638l20.321,11.729c0.737,0.425 1.096,0.996 1.096,1.596c-0,0.721 -0.525,1.483 -1.559,2.079l-20.129,11.621c-1.029,0.596 -2.35,0.9 -3.6,0.9Z"
          data-astro-cid-wzmz5lif="" fill="color(srgb 0.117647 0.145882 0.258431)"></path>
        <path
          d="M1084.53,933.715c-1.033,-0 -2.021,-0.209 -2.762,-0.638l-20.317,-11.729c-0.737,-0.429 -1.1,-0.996 -1.1,-1.596c0,-0.721 0.525,-1.483 1.554,-2.079l20.134,-11.621c1.029,-0.596 2.35,-0.9 3.6,-0.9c1.033,0 2.025,0.208 2.762,0.633l20.321,11.734c0.737,0.425 1.1,0.996 1.1,1.596c-0.004,0.72 -0.529,1.483 -1.563,2.079l-20.129,11.621c-1.029,0.595 -2.346,0.9 -3.6,0.9Z"
          data-astro-cid-wzmz5lif="" fill="color(srgb 0.117647 0.145882 0.258431)"></path>
        <path
          d="M1115.91,951.831c-1.037,0 -2.025,-0.212 -2.766,-0.637l-20.317,-11.734c-0.737,-0.425 -1.1,-0.995 -1.1,-1.595c0,-0.721 0.529,-1.484 1.558,-2.075l20.13,-11.625c1.029,-0.592 2.35,-0.896 3.6,-0.896c1.037,-0 2.025,0.208 2.762,0.637l20.321,11.729c0.737,0.43 1.1,0.996 1.1,1.592c-0,0.725 -0.529,1.488 -1.558,2.079l-20.13,11.621c-1.029,0.596 -2.35,0.904 -3.6,0.904Z"
          data-astro-cid-wzmz5lif="" fill="color(srgb 0.117647 0.145882 0.258431)"></path>
        <path
          d="M1147.28,969.944c-1.033,-0 -2.021,-0.209 -2.758,-0.638l-20.317,-11.729c-0.741,-0.425 -1.104,-0.996 -1.104,-1.596c0,-0.721 0.529,-1.483 1.558,-2.079l20.13,-11.621c1.029,-0.591 2.35,-0.9 3.6,-0.9c1.037,0 2.025,0.209 2.766,0.638l20.321,11.729c0.733,0.425 1.096,0.996 1.096,1.596c-0,0.721 -0.529,1.483 -1.558,2.079l-20.13,11.621c-1.033,0.596 -2.354,0.9 -3.604,0.9Z"
          data-astro-cid-wzmz5lif="" fill="color(srgb 0.117647 0.145882 0.258431)"></path>
        <path
          d="M1178.66,988.056c-1.033,0 -2.025,-0.208 -2.762,-0.633l-20.317,-11.729c-0.737,-0.429 -1.104,-1 -1.104,-1.596c0,-0.725 0.529,-1.488 1.558,-2.079l20.13,-11.621c1.033,-0.596 2.35,-0.904 3.6,-0.904c1.037,-0 2.025,0.212 2.766,0.637l20.321,11.734c0.738,0.425 1.096,0.995 1.096,1.591c-0,0.725 -0.525,1.484 -1.558,2.084l-20.13,11.62c-1.029,0.592 -2.35,0.896 -3.6,0.896Z"
          data-astro-cid-wzmz5lif="" fill="color(srgb 0.117647 0.145882 0.258431)"></path>
        <path
          d="M879.752,780.219c-1.033,-0 -2.025,-0.213 -2.762,-0.638l-20.317,-11.729c-0.742,-0.425 -1.104,-1 -1.1,-1.596c-0,-0.725 0.529,-1.483 1.558,-2.079l20.129,-11.621c1.03,-0.596 2.35,-0.904 3.6,-0.904c1.038,0 2.025,0.213 2.763,0.638l20.317,11.733c0.741,0.425 1.104,0.996 1.104,1.596c-0,0.721 -0.529,1.483 -1.559,2.079l-20.129,11.621c-1.029,0.591 -2.35,0.9 -3.604,0.9Z"
          data-astro-cid-wzmz5lif="" fill="color(srgb 0.117647 0.145882 0.258431)"></path>
        <path
          d="M848.535,762.194c-1.037,-0 -2.025,-0.209 -2.766,-0.638l-20.313,-11.729c-0.741,-0.429 -1.104,-1 -1.104,-1.596c0,-0.725 0.529,-1.487 1.558,-2.079l20.13,-11.621c1.029,-0.596 2.35,-0.9 3.604,-0.9c1.033,0 2.021,0.209 2.758,0.634l20.321,11.733c0.742,0.425 1.104,0.996 1.1,1.596c-0,0.721 -0.529,1.483 -1.558,2.079l-20.13,11.621c-1.029,0.596 -2.35,0.9 -3.6,0.9Z"
          data-astro-cid-wzmz5lif="" fill="color(srgb 0.117647 0.145882 0.258431)"></path>
        <path
          d="M817.315,744.169c-1.038,-0 -2.025,-0.209 -2.767,-0.638l-20.317,-11.733c-0.737,-0.425 -1.1,-0.996 -1.1,-1.592c0,-0.721 0.525,-1.483 1.559,-2.079l20.133,-11.621c1.029,-0.596 2.35,-0.9 3.6,-0.9c1.037,0 2.025,0.209 2.762,0.634l20.317,11.729c0.738,0.429 1.1,1 1.104,1.596c0,0.725 -0.529,1.487 -1.558,2.079l-20.133,11.621c-1.034,0.6 -2.35,0.904 -3.6,0.904Z"
          data-astro-cid-wzmz5lif="" fill="color(srgb 0.117647 0.145882 0.258431)"></path>
        <path
          d="M786.098,726.144c-1.038,-0 -2.029,-0.213 -2.767,-0.638l-20.321,-11.729c-0.737,-0.425 -1.1,-1 -1.1,-1.596c0,-0.721 0.525,-1.483 1.559,-2.079l20.133,-11.625c1.029,-0.592 2.35,-0.896 3.6,-0.896c1.033,0 2.025,0.209 2.763,0.634l20.316,11.729c0.738,0.429 1.1,1 1.1,1.6c0,0.721 -0.525,1.483 -1.558,2.075l-20.129,11.625c-1.029,0.596 -2.346,0.9 -3.596,0.9Z"
          data-astro-cid-wzmz5lif="" fill="color(srgb 0.117647 0.145882 0.258431)"></path>
        <path
          d="M818.198,707.606c-1.038,0 -2.025,-0.208 -2.767,-0.633l-20.316,-11.733c-0.738,-0.425 -1.1,-0.996 -1.1,-1.596c-0,-0.721 0.529,-1.484 1.558,-2.079l6.654,-3.842c1.033,-0.592 2.35,-0.896 3.6,-0.896c1.038,0 2.025,0.208 2.767,0.633l20.316,11.73c0.738,0.429 1.1,1 1.1,1.6c0,0.72 -0.525,1.483 -1.558,2.075l-6.654,3.841c-1.029,0.596 -2.35,0.9 -3.6,0.9Z"
          data-astro-cid-wzmz5lif="" fill="color(srgb 0.117647 0.145882 0.258431)"></path>
        <path
          d="M858.94,731.131c-1.038,0 -2.025,-0.208 -2.763,-0.637l-20.317,-11.729c-0.741,-0.43 -1.104,-1 -1.104,-1.596c0,-0.721 0.529,-1.484 1.559,-2.079l6.658,-3.842c1.029,-0.596 2.35,-0.9 3.6,-0.9c1.033,-0 2.025,0.208 2.762,0.633l20.317,11.734c0.738,0.425 1.1,1 1.1,1.595c0,0.721 -0.525,1.484 -1.554,2.08l-6.658,3.841c-1.03,0.596 -2.35,0.9 -3.6,0.9Z"
          data-astro-cid-wzmz5lif="" fill="color(srgb 0.117647 0.145882 0.258431)"></path>
        <path
          d="M890.031,749.081c-1.037,0 -2.025,-0.208 -2.762,-0.633l-20.321,-11.733c-0.738,-0.43 -1.1,-1 -1.1,-1.596c-0,-0.721 0.529,-1.484 1.558,-2.079l6.654,-3.846c1.03,-0.592 2.346,-0.896 3.596,-0.896c1.038,-0 2.029,0.208 2.771,0.637l20.317,11.725c0.737,0.43 1.1,1 1.1,1.6c-0,0.721 -0.529,1.484 -1.563,2.075l-6.65,3.846c-1.029,0.596 -2.35,0.9 -3.6,0.9Z"
          data-astro-cid-wzmz5lif="" fill="color(srgb 0.117647 0.145882 0.258431)"></path>
        <path
          d="M921.119,767.031c-1.038,0 -2.025,-0.212 -2.767,-0.637l-20.317,-11.729c-0.737,-0.425 -1.1,-0.996 -1.1,-1.596c0.005,-0.725 0.534,-1.484 1.563,-2.079l6.65,-3.842c1.033,-0.596 2.35,-0.9 3.6,-0.9c1.037,-0 2.025,0.208 2.767,0.637l20.316,11.73c0.738,0.425 1.1,0.995 1.1,1.595c0,0.721 -0.525,1.484 -1.558,2.08l-6.65,3.841c-1.033,0.592 -2.354,0.9 -3.604,0.9Z"
          data-astro-cid-wzmz5lif="" fill="color(srgb 0.117647 0.145882 0.258431)"></path>
        <path
          d="M952.21,784.981c-1.037,0 -2.025,-0.212 -2.766,-0.637l-20.317,-11.734c-0.737,-0.425 -1.1,-0.995 -1.1,-1.591c0,-0.721 0.525,-1.484 1.558,-2.079l6.655,-3.842c1.033,-0.596 2.354,-0.9 3.604,-0.9c1.033,-0 2.021,0.208 2.762,0.633l20.317,11.734c0.737,0.425 1.1,0.995 1.1,1.595c-0,0.721 -0.525,1.484 -1.558,2.075l-6.655,3.842c-1.033,0.6 -2.35,0.904 -3.6,0.904Z"
          data-astro-cid-wzmz5lif="" fill="color(srgb 0.117647 0.145882 0.258431)"></path>
        <path
          d="M1125.78,885.19c-1.037,-0 -2.025,-0.209 -2.762,-0.634l-20.317,-11.733c-0.742,-0.425 -1.104,-0.996 -1.104,-1.596c-0,-0.721 0.529,-1.483 1.558,-2.079l6.654,-3.838c1.03,-0.595 2.35,-0.9 3.6,-0.9c1.038,0 2.025,0.209 2.763,0.634l20.321,11.729c0.737,0.429 1.1,1 1.1,1.596c-0,0.725 -0.529,1.487 -1.559,2.079l-6.654,3.842c-1.029,0.595 -2.35,0.9 -3.6,0.9Z"
          data-astro-cid-wzmz5lif="" fill="color(srgb 0.117647 0.145882 0.258431)"></path>
        <path
          d="M1156.87,903.14c-1.038,-0 -2.029,-0.209 -2.771,-0.638l-20.312,-11.725c-0.742,-0.429 -1.105,-1 -1.105,-1.6c0.005,-0.721 0.534,-1.483 1.563,-2.079l6.654,-3.842c1.029,-0.596 2.346,-0.9 3.6,-0.9c1.033,0 2.021,0.209 2.763,0.638l20.316,11.729c0.738,0.429 1.1,1 1.1,1.596c0,0.725 -0.525,1.483 -1.558,2.079l-6.65,3.846c-1.029,0.591 -2.35,0.896 -3.6,0.896Z"
          data-astro-cid-wzmz5lif="" fill="color(srgb 0.117647 0.145882 0.258431)"></path>
        <path
          d="M1187.96,921.09c-1.037,-0 -2.025,-0.209 -2.766,-0.634l-20.317,-11.733c-0.737,-0.425 -1.1,-0.996 -1.1,-1.596c0,-0.721 0.529,-1.483 1.558,-2.075l6.655,-3.842c1.033,-0.595 2.35,-0.904 3.6,-0.904c1.037,0 2.025,0.213 2.766,0.638l20.317,11.733c0.737,0.425 1.1,0.996 1.1,1.592c-0,0.721 -0.525,1.483 -1.558,2.083l-6.655,3.838c-1.033,0.595 -2.35,0.9 -3.6,0.9Z"
          data-astro-cid-wzmz5lif="" fill="color(srgb 0.117647 0.145882 0.258431)"></path>
        <path
          d="M1219.05,939.04c-1.033,-0 -2.021,-0.209 -2.763,-0.638l-20.316,-11.729c-0.738,-0.425 -1.1,-0.996 -1.1,-1.596c-0,-0.721 0.525,-1.483 1.558,-2.079l6.65,-3.842c1.033,-0.591 2.354,-0.896 3.604,-0.896c1.038,0 2.025,0.209 2.763,0.634l20.321,11.729c0.737,0.425 1.1,1 1.1,1.6c-0,0.721 -0.53,1.479 -1.563,2.075l-6.65,3.842c-1.033,0.595 -2.354,0.9 -3.604,0.9Z"
          data-astro-cid-wzmz5lif="" fill="color(srgb 0.117647 0.145882 0.258431)"></path>
        <path
          d="M911.131,798.331c-1.037,0 -2.029,-0.208 -2.766,-0.633l-20.317,-11.733c-0.738,-0.425 -1.1,-0.996 -1.1,-1.596c-0,-0.721 0.529,-1.484 1.558,-2.075l20.129,-11.621c1.034,-0.6 2.35,-0.904 3.6,-0.904c1.038,-0 2.025,0.208 2.767,0.637l20.317,11.729c0.737,0.43 1.1,1 1.1,1.596c-0,0.721 -0.525,1.484 -1.559,2.079l-20.129,11.621c-1.029,0.596 -2.35,0.9 -3.6,0.9Z"
          data-astro-cid-wzmz5lif="" fill="color(srgb 0.117647 0.145882 0.258431)"></path>
        <path
          d="M942.506,816.448c-1.037,-0 -2.025,-0.208 -2.766,-0.638l-20.317,-11.729c-0.738,-0.429 -1.1,-1 -1.1,-1.596c-0,-0.725 0.529,-1.483 1.562,-2.079l20.13,-11.625c1.029,-0.591 2.345,-0.896 3.595,-0.896c1.038,0 2.025,0.209 2.767,0.638l20.317,11.725c0.737,0.429 1.1,1 1.1,1.6c-0,0.721 -0.525,1.483 -1.554,2.079l-20.13,11.621c-1.033,0.596 -2.354,0.9 -3.604,0.9Z"
          data-astro-cid-wzmz5lif="" fill="color(srgb 0.117647 0.145882 0.258431)"></path>
        <path
          d="M973.881,834.56c-1.037,0 -2.025,-0.208 -2.762,-0.633l-20.321,-11.729c-0.738,-0.429 -1.1,-1 -1.1,-1.6c0.004,-0.721 0.533,-1.483 1.562,-2.075l20.13,-11.625c1.029,-0.596 2.345,-0.9 3.595,-0.9c1.038,-0 2.03,0.212 2.767,0.637l20.317,11.73c0.741,0.429 1.104,1 1.104,1.595c-0,0.725 -0.529,1.484 -1.558,2.08l-20.13,11.625c-1.033,0.591 -2.35,0.895 -3.604,0.895Z"
          data-astro-cid-wzmz5lif="" fill="color(srgb 0.117647 0.145882 0.258431)"></path>
        <path
          d="M1005.26,852.677c-1.033,0 -2.025,-0.208 -2.762,-0.633l-20.317,-11.734c-0.742,-0.425 -1.1,-0.995 -1.1,-1.595c0,-0.721 0.529,-1.484 1.558,-2.075l20.13,-11.625c1.029,-0.596 2.35,-0.9 3.6,-0.9c1.033,-0 2.025,0.208 2.762,0.637l20.321,11.729c0.737,0.425 1.1,0.996 1.1,1.596c-0,0.721 -0.529,1.483 -1.558,2.075l-20.13,11.625c-1.029,0.596 -2.35,0.9 -3.604,0.9Z"
          data-astro-cid-wzmz5lif="" fill="color(srgb 0.117647 0.145882 0.258431)"></path>
        <path
          d="M1036.63,870.794c-1.037,-0 -2.029,-0.209 -2.766,-0.634l-20.317,-11.733c-0.737,-0.429 -1.1,-1 -1.1,-1.596c0,-0.721 0.529,-1.483 1.558,-2.079l20.134,-11.625c1.029,-0.592 2.35,-0.896 3.6,-0.896c1.033,0 2.021,0.209 2.762,0.634l20.317,11.729c0.737,0.429 1.1,1 1.1,1.6c-0,0.721 -0.525,1.479 -1.558,2.075l-20.13,11.625c-1.029,0.596 -2.35,0.9 -3.6,0.9Z"
          data-astro-cid-wzmz5lif="" fill="color(srgb 0.117647 0.145882 0.258431)"></path>
        <path
          d="M1068.01,888.906c-1.037,0 -2.025,-0.208 -2.766,-0.633l-20.317,-11.729c-0.737,-0.429 -1.1,-1 -1.1,-1.6c0,-0.721 0.529,-1.479 1.563,-2.075l20.129,-11.625c1.029,-0.596 2.35,-0.9 3.6,-0.9c1.037,-0 2.025,0.208 2.762,0.633l20.317,11.733c0.737,0.425 1.1,1 1.104,1.596c0,0.721 -0.529,1.484 -1.558,2.079l-20.129,11.625c-1.034,0.592 -2.355,0.896 -3.605,0.896Z"
          data-astro-cid-wzmz5lif="" fill="color(srgb 0.117647 0.145882 0.258431)"></path>
        <path
          d="M1099.39,907.023c-1.038,-0 -2.03,-0.208 -2.767,-0.638l-20.317,-11.729c-0.741,-0.425 -1.104,-0.996 -1.1,-1.596c0,-0.72 0.529,-1.483 1.559,-2.075l20.129,-11.625c1.029,-0.595 2.35,-0.9 3.6,-0.9c1.037,0 2.025,0.209 2.762,0.634l20.317,11.729c0.742,0.429 1.104,1 1.104,1.6c0,0.721 -0.529,1.483 -1.558,2.075l-20.129,11.625c-1.03,0.596 -2.35,0.9 -3.6,0.9Z"
          data-astro-cid-wzmz5lif="" fill="color(srgb 0.117647 0.145882 0.258431)"></path>
        <path
          d="M1130.77,925.14c-1.038,-0 -2.03,-0.209 -2.767,-0.638l-20.317,-11.729c-0.741,-0.429 -1.1,-1 -1.1,-1.596c0,-0.725 0.529,-1.483 1.559,-2.079l20.129,-11.625c1.033,-0.592 2.35,-0.9 3.604,-0.9c1.033,-0 2.021,0.212 2.762,0.637l20.317,11.73c0.738,0.429 1.1,1 1.1,1.6c0,0.72 -0.525,1.479 -1.558,2.075l-20.129,11.625c-1.03,0.6 -2.346,0.9 -3.6,0.9Z"
          data-astro-cid-wzmz5lif="" fill="color(srgb 0.117647 0.145882 0.258431)"></path>
        <path
          d="M1162.14,943.252c-1.038,0 -2.029,-0.208 -2.771,-0.637l-20.317,-11.721c-0.737,-0.429 -1.1,-1.004 -1.1,-1.6c0,-0.725 0.529,-1.484 1.559,-2.079l20.129,-11.625c1.033,-0.596 2.354,-0.9 3.604,-0.9c1.033,-0 2.025,0.208 2.762,0.633l20.317,11.733c0.738,0.425 1.1,1 1.1,1.596c0,0.721 -0.525,1.488 -1.558,2.079l-20.129,11.625c-1.03,0.592 -2.346,0.896 -3.596,0.896Z"
          data-astro-cid-wzmz5lif="" fill="color(srgb 0.117647 0.145882 0.258431)"></path>
        <path
          d="M731.752,800.569c-1.037,-0 -2.029,-0.209 -2.771,-0.638l-59.833,-34.546c-0.742,-0.425 -1.104,-0.995 -1.104,-1.595c-0,-0.721 0.529,-1.484 1.558,-2.08l20.133,-11.62c1.034,-0.596 2.35,-0.9 3.605,-0.9c1.033,-0 2.02,0.208 2.762,0.637l59.833,34.546c0.738,0.425 1.096,0.996 1.096,1.596c0.009,0.721 -0.521,1.483 -1.55,2.079l-20.129,11.625c-1.033,0.592 -2.35,0.896 -3.6,0.896Z"
          data-astro-cid-wzmz5lif="" fill="color(srgb 0.117647 0.145882 0.258431)"></path>
        <path
          d="M1117.21,1023.12c-1.033,-0 -2.025,-0.209 -2.762,-0.634l-59.838,-34.55c-0.741,-0.425 -1.104,-0.996 -1.104,-1.591c0.004,-0.725 0.534,-1.488 1.563,-2.084l20.129,-11.621c1.029,-0.591 2.35,-0.9 3.6,-0.9c1.037,0 2.025,0.213 2.762,0.638l59.842,34.546c0.738,0.425 1.1,1 1.1,1.596c-0.004,0.72 -0.529,1.483 -1.562,2.079l-20.13,11.625c-1.029,0.591 -2.35,0.896 -3.6,0.896Z"
          data-astro-cid-wzmz5lif="" fill="color(srgb 0.117647 0.145882 0.258431)"></path>
        <path
          d="M991.731,990.685c-1.033,0 -2.021,-0.208 -2.758,-0.633l-20.321,-11.729c-0.742,-0.429 -1.104,-1 -1.1,-1.6c0,-0.721 0.529,-1.483 1.558,-2.075l23.98,-13.85c1.029,-0.592 2.35,-0.896 3.604,-0.896c1.033,0 2.021,0.208 2.758,0.633l20.321,11.73c0.742,0.429 1.104,1 1.1,1.595c-0,0.725 -0.529,1.488 -1.558,2.08l-23.98,13.845c-1.029,0.596 -2.35,0.9 -3.604,0.9Z"
          data-astro-cid-wzmz5lif="" fill="color(srgb 0.117647 0.145882 0.258431)"></path>
        <path
          d="M763.881,859.135c-1.037,0 -2.025,-0.212 -2.766,-0.637l-32.492,-18.758c-0.738,-0.425 -1.1,-1 -1.1,-1.596c-0,-0.725 0.525,-1.484 1.558,-2.079l23.979,-13.846c1.034,-0.596 2.355,-0.9 3.605,-0.9c1.029,-0 2.025,0.208 2.762,0.633l32.492,18.763c0.737,0.425 1.1,0.995 1.1,1.595c-0,0.721 -0.525,1.484 -1.559,2.08l-23.983,13.845c-1.029,0.596 -2.346,0.9 -3.596,0.9Z"
          data-astro-cid-wzmz5lif="" fill="color(srgb 0.117647 0.145882 0.258431)"></path>
        <path
          d="M961.502,973.231c-1.033,0 -2.025,-0.208 -2.762,-0.633l-32.496,-18.758c-0.742,-0.43 -1.1,-1 -1.1,-1.6c-0,-0.721 0.529,-1.484 1.558,-2.075l23.979,-13.846c1.034,-0.592 2.354,-0.9 3.604,-0.9c1.038,-0 2.025,0.208 2.763,0.633l32.492,18.758c0.741,0.43 1.104,1 1.104,1.596c-0,0.725 -0.529,1.488 -1.559,2.084l-23.983,13.841c-1.029,0.596 -2.35,0.9 -3.6,0.9Z"
          data-astro-cid-wzmz5lif="" fill="color(srgb 0.117647 0.145882 0.258431)"></path>
        <path
          d="M806.519,884.71c-0.046,-0.025 -0.092,-0.05 -0.138,-0.075l-32.487,-18.762c-0.742,-0.425 -1.104,-0.996 -1.104,-1.596c-0,-0.721 0.529,-1.483 1.554,-2.079l23.987,-13.846c1.029,-0.592 2.346,-0.896 3.596,-0.896c1.038,0 2.029,0.209 2.767,0.638l0.221,0.125l-30.805,17.779l32.409,18.712Z"
          data-astro-cid-wzmz5lif="" fill="color(srgb 0.117647 0.145882 0.258431)"></path>
        <path d="M837.281,866.906l-27.504,-15.879l27.413,15.825c0.029,0.017 0.062,0.033 0.091,0.054Z"
          data-astro-cid-wzmz5lif="" fill="color(srgb 0.117647 0.145882 0.258431)"></path>
        <path
          d="M918.556,948.323c-1.146,-0 -2.296,-0.254 -3.175,-0.758l-108.862,-62.855l-32.409,-18.712l30.805,-17.779l32.366,18.687l108.904,62.875c0.88,0.504 1.317,1.167 1.317,1.834c0,0.662 -0.437,1.325 -1.317,1.829l-24.454,14.121c-0.875,0.504 -2.025,0.758 -3.175,0.758Z"
          data-astro-cid-wzmz5lif="" fill="color(srgb 0.117647 0.145882 0.258431)"></path>
        <path
          d="M1086.16,1045.37c-0.85,-0 -1.662,-0.171 -2.266,-0.521l-22.634,-13.067c-0.604,-0.35 -0.9,-0.816 -0.9,-1.308c0,-0.587 0.434,-1.212 1.279,-1.7l9.809,-5.667c0.846,-0.487 1.929,-0.737 2.954,-0.737c0.85,-0 1.658,0.171 2.267,0.521l22.625,13.066c0.608,0.35 0.904,0.817 0.904,1.309c-0,0.591 -0.434,1.216 -1.279,1.704l-9.809,5.662c-0.846,0.488 -1.925,0.738 -2.95,0.738Z"
          data-astro-cid-wzmz5lif="" fill="color(srgb 0.117647 0.145882 0.258431)"></path>
        <path
          d="M1054.52,1027.11c-0.85,0 -1.659,-0.17 -2.267,-0.525l-22.629,-13.062c-0.604,-0.35 -0.9,-0.821 -0.904,-1.308c-0,-0.592 0.433,-1.217 1.279,-1.705l9.812,-5.662c0.842,-0.488 1.925,-0.738 2.95,-0.738c0.846,0 1.659,0.171 2.267,0.521l22.625,13.067c0.608,0.346 0.904,0.817 0.904,1.304c0,0.592 -0.429,1.217 -1.275,1.704l-9.812,5.667c-0.842,0.487 -1.925,0.737 -2.95,0.737Z"
          data-astro-cid-wzmz5lif="" fill="color(srgb 0.117647 0.145882 0.258431)"></path>
        <path
          d="M1023.14,1008.99c-0.85,-0 -1.663,-0.171 -2.267,-0.521l-22.629,-13.067c-0.604,-0.35 -0.904,-0.816 -0.904,-1.308c-0,-0.592 0.433,-1.217 1.279,-1.704l9.812,-5.663c0.842,-0.487 1.921,-0.737 2.946,-0.737c0.85,-0 1.663,0.171 2.271,0.521l22.625,13.066c0.608,0.35 0.904,0.817 0.904,1.309c0,0.591 -0.433,1.216 -1.279,1.704l-9.808,5.662c-0.846,0.488 -1.925,0.738 -2.95,0.738Z"
          data-astro-cid-wzmz5lif="" fill="color(srgb 0.117647 0.145882 0.258431)"></path>
        <path
          d="M1071.87,1017.06c-0.85,0 -1.662,-0.171 -2.266,-0.521l-22.629,-13.066c-0.605,-0.35 -0.905,-0.817 -0.905,-1.309c0,-0.591 0.434,-1.216 1.279,-1.704l9.813,-5.662c0.842,-0.488 1.921,-0.738 2.946,-0.738c0.85,0 1.662,0.171 2.271,0.521l22.625,13.067c0.608,0.35 0.904,0.816 0.904,1.308c-0,0.592 -0.434,1.217 -1.279,1.704l-9.809,5.663c-0.846,0.487 -1.925,0.737 -2.95,0.737Z"
          data-astro-cid-wzmz5lif="" fill="color(srgb 0.117647 0.145882 0.258431)"></path>
      </g>
      <path id="trackpad"
        d="M807.948,1056.95c-5.421,-0 -10.613,-1.129 -14.583,-3.421l-0,0.004l-157.688,-91.037c-4.179,-2.417 -6.479,-5.863 -6.479,-9.717c-0.004,-4.471 3.171,-8.862 8.696,-12.054l81.166,-46.867c5.388,-3.104 12.138,-4.691 18.571,-4.691c5.421,-0 10.617,1.125 14.584,3.412l157.687,91.042c4.179,2.412 6.479,5.862 6.483,9.716c0,4.467 -3.17,8.863 -8.695,12.055l-81.175,46.866c-5.384,3.104 -12.134,4.692 -18.567,4.692Zm-70.242,-163.179c-5.7,-0 -11.754,1.375 -16.366,4.033l-81.167,46.867c-4.083,2.354 -6.425,5.312 -6.425,8.108c-0,2.763 2.287,4.663 4.208,5.767l157.688,91.046c3.208,1.845 7.604,2.75 12.233,2.75c5.704,-0 11.754,-1.367 16.358,-4.034l81.175,-46.862c4.08,-2.354 6.421,-5.309 6.421,-8.109c0,-2.762 -2.287,-4.662 -4.208,-5.77l-157.688,-91.038c-3.2,-1.854 -7.6,-2.758 -12.229,-2.758Z"
        style="" data-astro-cid-wzmz5lif="" fill="color(srgb 0.117647 0.145882 0.258431)"></path>
    </g>
    <g id="screen" data-astro-cid-wzmz5lif="">
      <path id="screen-border"
        d="M1407.56,959.44c4.509,-1.655 8.234,-5.609 10.004,-11.371l135.559,-440.129c3.358,-10.913 -1.563,-24.175 -10.988,-29.621l-599.425,-346.075c-2.733,-1.575 -5.541,-2.321 -8.241,-2.321c-1.517,-0 -3,0.237 -4.413,0.696l10.575,-3.684l0.054,-0.02l0.004,-0c1.284,-0.375 2.625,-0.567 3.996,-0.567c2.696,-0 5.504,0.746 8.238,2.325l599.429,346.075c9.421,5.442 14.342,18.7 10.983,29.612l-135.554,440.134c-1.725,5.604 -5.3,9.487 -9.646,11.212l0.029,0.009l-10.604,3.725Z"
        style="" data-astro-cid-wzmz5lif="" fill="url(&quot;#_Radial84&quot;)"></path>
      <path id="screen-frame"
        d="M1402.66,960.302c-2.7,0 -5.508,-0.746 -8.241,-2.321l-0.68,-0.396l-598.745,-345.683c-0.463,-0.267 -0.917,-0.554 -1.359,-0.858c-8.529,-5.888 -12.821,-18.384 -9.629,-28.759l135.563,-440.129c1.833,-5.966 5.762,-10 10.487,-11.537c1.413,-0.459 2.896,-0.696 4.413,-0.696c2.7,-0 5.508,0.746 8.241,2.321l599.425,346.075c9.425,5.446 14.346,18.708 10.988,29.621l-135.559,440.129c-1.77,5.762 -5.495,9.716 -10.004,11.371c-1.558,0.57 -3.208,0.862 -4.9,0.862Zm-606.825,-375.15c-0.004,8.625 4.425,17.358 11.525,21.458l581.409,335.959c2.616,1.508 5.304,2.225 7.883,2.225c6.321,-0 11.983,-4.292 14.267,-11.709l129.6,-420.762c0.683,-2.225 1.008,-4.55 1.008,-6.883c-0,-8.63 -4.425,-17.363 -11.525,-21.459l-581.408,-335.954c-2.613,-1.512 -5.305,-2.225 -7.884,-2.225c-6.325,0 -11.987,4.292 -14.266,11.708l-129.6,420.759c-0.684,2.225 -1.009,4.55 -1.009,6.883Z"
        style="" data-astro-cid-wzmz5lif="" fill="url(&quot;#_Radial85&quot;)"></path>
      <path id="screen-background"
        d="M1396.65,944.794c-2.579,-0 -5.267,-0.717 -7.883,-2.225l-581.409,-335.959c-7.1,-4.1 -11.529,-12.833 -11.525,-21.458c0,-2.333 0.325,-4.658 1.009,-6.883l129.6,-420.759c2.279,-7.416 7.941,-11.708 14.266,-11.708c2.579,0 5.271,0.713 7.884,2.225l581.408,335.954c7.1,4.096 11.525,12.829 11.525,21.459c-0,2.333 -0.325,4.658 -1.008,6.883l-129.6,420.762c-2.284,7.417 -7.946,11.709 -14.267,11.709Z"
        style="" data-astro-cid-wzmz5lif="" fill="url(&quot;#_Linear86&quot;)"></path>
      <g id="window" data-astro-cid-wzmz5lif="">
        <path id="window-shadow"
          d="M1362.6,815.617c-1.771,-0 -3.616,-0.492 -5.412,-1.525l-393.583,-227.234c-4.859,-2.804 -7.896,-8.775 -7.909,-14.679c-0.004,-1.616 0.221,-3.229 0.696,-4.766l89.008,-288.996c1.563,-5.088 5.45,-8.029 9.788,-8.029c1.771,-0 3.616,0.487 5.408,1.525l393.583,227.237c4.863,2.804 7.896,8.775 7.909,14.679c0.004,1.617 -0.221,3.229 -0.692,4.767l-83.154,269.975l-5.854,19.012c-1.567,5.092 -5.45,8.034 -9.788,8.034Z"
          style="" data-astro-cid-wzmz5lif="" fill="url(&quot;#_Linear87&quot;)"></path>
        <path id="window-background"
          d="M1309.76,822.481c-1.77,0 -3.616,-0.491 -5.412,-1.525l-393.583,-227.233c-4.859,-2.804 -7.896,-8.775 -7.909,-14.679c-0.004,-1.617 0.221,-3.229 0.696,-4.767l89.008,-288.996c1.563,-5.087 5.45,-8.029 9.788,-8.029c1.771,0 3.617,0.488 5.408,1.525l393.584,227.238c4.862,2.804 7.895,8.775 7.908,14.679c0.004,1.616 -0.221,3.229 -0.692,4.766l-83.154,269.975l-5.854,19.013c-1.567,5.092 -5.45,8.033 -9.788,8.033Z"
          style="" data-astro-cid-wzmz5lif="" fill="#EFF1F5"></path>
        <path id="window-edge"
          d="M1401.34,506.015l-393.588,-227.238c-3.875,-2.237 -7.992,-1.929 -11.071,0.379c1.859,-0.054 3.792,0.367 5.688,1.454l393.579,227.234c6.187,3.575 9.417,12.283 7.217,19.446l-89.009,288.991c-0.825,2.675 -2.287,4.754 -4.125,6.134c4.221,-0.13 7.984,-2.988 9.517,-7.967l89.008,-288.988c2.204,-7.166 -1.025,-15.875 -7.216,-19.445Z"
          style="fill-rule: nonzero;" data-astro-cid-wzmz5lif="" fill="#E6E9EF"></path>
        <g id="window-content" data-astro-cid-wzmz5lif="">
          <g id="code" data-astro-cid-wzmz5lif="">
            <path class="code-function"
              d="M1103.62,430.394l-24.334,-14.046c-2.258,-1.308 -3.466,-4.442 -2.7,-7c0.763,-2.558 3.213,-3.583 5.471,-2.279l24.329,14.05c2.259,1.304 3.467,4.433 2.709,7c-0.767,2.558 -3.217,3.575 -5.475,2.275Z"
              style="fill-rule: nonzero;" data-astro-cid-wzmz5lif="" fill="#D20F39"></path>
            <path class="code-keyword"
              d="M1161.58,463.856l-35.879,-20.716c-2.258,-1.3 -3.467,-4.434 -2.704,-6.996c0.762,-2.563 3.212,-3.579 5.471,-2.275l35.879,20.712c2.254,1.304 3.471,4.438 2.704,7c-0.767,2.559 -3.217,3.575 -5.471,2.275Z"
              style="fill-rule: nonzero;" data-astro-cid-wzmz5lif="" fill="#40A02B"></path>
            <path class="code-text"
              d="M1054.55,538.727l-24.333,-14.05c-2.259,-1.304 -3.467,-4.437 -2.7,-6.996c0.758,-2.562 3.208,-3.583 5.466,-2.279l24.334,14.05c2.258,1.304 3.47,4.433 2.704,6.996c-0.763,2.562 -3.213,3.579 -5.471,2.279Z"
              style="fill-rule: nonzero;" data-astro-cid-wzmz5lif="" fill="#4C4F69"></path>
            <path class="code-text"
              d="M1106.21,568.556l-35.88,-20.716c-2.254,-1.3 -3.466,-4.434 -2.7,-7c0.759,-2.559 3.209,-3.575 5.467,-2.271l35.879,20.712c2.259,1.304 3.467,4.438 2.709,6.996c-0.767,2.563 -3.217,3.579 -5.475,2.279Z"
              style="fill-rule: nonzero;" data-astro-cid-wzmz5lif="" fill="#4C4F69"></path>
            <path class="code-keyword"
              d="M1030.73,411.09l-15.2,-8.78c-2.258,-1.304 -3.466,-4.433 -2.704,-6.995c0.763,-2.563 3.213,-3.584 5.471,-2.275l15.2,8.77c2.258,1.309 3.467,4.442 2.704,7c-0.762,2.559 -3.212,3.58 -5.471,2.28Z"
              style="fill-rule: nonzero;" data-astro-cid-wzmz5lif="" fill="#40A02B"></path>
            <path class="code-keyword"
              d="M1076.47,460.269l-46.446,-26.813c-2.258,-1.304 -3.471,-4.437 -2.704,-6.996c0.762,-2.562 3.212,-3.579 5.471,-2.279l46.441,26.817c2.259,1.3 3.471,4.433 2.705,7c-0.763,2.558 -3.213,3.575 -5.467,2.271Z"
              style="fill-rule: nonzero;" data-astro-cid-wzmz5lif="" fill="#40A02B"></path>
            <path class="code-function"
              d="M1033.63,481.098l-15.2,-8.779c-2.254,-1.3 -3.466,-4.434 -2.7,-7c0.763,-2.559 3.213,-3.579 5.467,-2.271l15.2,8.775c2.258,1.3 3.471,4.433 2.708,6.996c-0.766,2.558 -3.216,3.579 -5.475,2.279Z"
              style="fill-rule: nonzero;" data-astro-cid-wzmz5lif="" fill="#D20F39"></path>
            <path class="code-text"
              d="M1111.82,617.344l-40.6,-23.438c-2.259,-1.308 -3.467,-4.441 -2.704,-7c0.762,-2.558 3.212,-3.579 5.47,-2.279l40.6,23.442c2.255,1.304 3.467,4.437 2.705,7c-0.767,2.558 -3.213,3.575 -5.471,2.275Z"
              style="fill-rule: nonzero;" data-astro-cid-wzmz5lif="" fill="#4C4F69"></path>
            <path class="code-text"
              d="M1016.6,516.815l-9.758,-5.638c-2.255,-1.3 -3.467,-4.433 -2.705,-6.992c0.767,-2.566 3.213,-3.583 5.471,-2.279l9.759,5.634c2.258,1.304 3.47,4.437 2.704,6.995c-0.767,2.563 -3.213,3.58 -5.471,2.28Z"
              style="fill-rule: nonzero;" data-astro-cid-wzmz5lif="" fill="#4C4F69"></path>
            <path class="code-keyword"
              d="M1007.37,557.035l-12.117,-6.995c-2.258,-1.3 -3.471,-4.434 -2.704,-6.996c0.762,-2.563 3.212,-3.579 5.471,-2.275l12.116,6.996c2.259,1.3 3.467,4.433 2.704,6.995c-0.762,2.559 -3.212,3.584 -5.47,2.275Z"
              style="fill-rule: nonzero;" data-astro-cid-wzmz5lif="" fill="#40A02B"></path>
            <path class="code-text"
              d="M1054.5,584.252l-31.946,-18.442c-2.258,-1.304 -3.471,-4.437 -2.704,-7c0.763,-2.558 3.213,-3.579 5.471,-2.275l31.946,18.446c2.254,1.3 3.466,4.434 2.704,6.992c-0.763,2.562 -3.213,3.583 -5.471,2.279Z"
              style="fill-rule: nonzero;" data-astro-cid-wzmz5lif="" fill="#4C4F69"></path>
            <path class="code-int"
              d="M1012.42,582.731l-22.971,-13.258c-2.258,-1.304 -3.471,-4.438 -2.708,-6.996c0.766,-2.562 3.216,-3.583 5.475,-2.279l22.966,13.262c2.259,1.305 3.471,4.434 2.705,6.996c-0.767,2.559 -3.213,3.584 -5.467,2.275Z"
              style="fill-rule: nonzero;" data-astro-cid-wzmz5lif="" fill="#1E66F5"></path>
            <path class="code-text"
              d="M1146.65,637.548l-14.75,-8.517c-2.258,-1.3 -3.471,-4.433 -2.704,-6.991c0.766,-2.567 3.212,-3.584 5.466,-2.28l14.755,8.517c2.258,1.304 3.47,4.433 2.704,6.996c-0.763,2.562 -3.213,3.583 -5.471,2.275Z"
              style="fill-rule: nonzero;" data-astro-cid-wzmz5lif="" fill="#4C4F69"></path>
            <path class="code-keyword"
              d="M1090.18,513.744l-40.6,-23.442c-2.254,-1.304 -3.467,-4.437 -2.704,-7c0.767,-2.558 3.217,-3.583 5.471,-2.275l40.6,23.438c2.258,1.304 3.466,4.437 2.704,7c-0.763,2.558 -3.213,3.579 -5.471,2.279Z"
              style="fill-rule: nonzero;" data-astro-cid-wzmz5lif="" fill="#40A02B"></path>
            <path class="code-text"
              d="M1094.99,493.744l-70.759,-40.854c-2.258,-1.305 -3.466,-4.438 -2.708,-7c0.767,-2.559 3.217,-3.58 5.475,-2.28l70.758,40.859c2.259,1.304 3.467,4.437 2.704,6.996c-0.762,2.558 -3.212,3.579 -5.47,2.279Z"
              style="fill-rule: nonzero;" data-astro-cid-wzmz5lif="" fill="#4C4F69"></path>
            <path class="code-text"
              d="M1053.24,515.19l-40.6,-23.442c-2.258,-1.3 -3.466,-4.433 -2.704,-6.996c0.767,-2.562 3.213,-3.579 5.471,-2.275l40.604,23.442c2.254,1.3 3.467,4.433 2.7,6.991c-0.766,2.567 -3.212,3.584 -5.471,2.28Z"
              style="fill-rule: nonzero;" data-astro-cid-wzmz5lif="" fill="#4C4F69"></path>
            <path class="code-int"
              d="M1120.97,531.519l-14.75,-8.517c-2.259,-1.304 -3.471,-4.433 -2.704,-7c0.762,-2.558 3.212,-3.579 5.47,-2.271l14.75,8.517c2.259,1.3 3.467,4.433 2.705,6.992c-0.763,2.562 -3.213,3.583 -5.471,2.279Z"
              style="fill-rule: nonzero;" data-astro-cid-wzmz5lif="" fill="#1E66F5"></path>
            <path class="code-text"
              d="M1271.02,527.04l-87.355,-50.438c-2.254,-1.3 -3.466,-4.433 -2.7,-6.992c0.763,-2.566 3.213,-3.583 5.467,-2.279l87.354,50.434c2.259,1.304 3.471,4.437 2.709,6.995c-0.767,2.563 -3.217,3.58 -5.475,2.28Z"
              style="fill-rule: nonzero;" data-astro-cid-wzmz5lif="" fill="#4C4F69"></path>
            <path class="code-int"
              d="M1049.85,558.785l-48.804,-28.175c-2.259,-1.304 -3.471,-4.437 -2.704,-6.995c0.762,-2.563 3.212,-3.584 5.47,-2.275l48.805,28.17c2.254,1.309 3.466,4.438 2.704,7c-0.763,2.559 -3.213,3.584 -5.471,2.275Z"
              style="fill-rule: nonzero;" data-astro-cid-wzmz5lif="" fill="#1E66F5"></path>
            <path class="code-function"
              d="M1057.21,403.594l-35.879,-20.717c-2.258,-1.3 -3.471,-4.433 -2.704,-6.992c0.762,-2.562 3.212,-3.583 5.471,-2.279l35.879,20.713c2.258,1.308 3.471,4.437 2.704,7c-0.762,2.558 -3.212,3.579 -5.471,2.275Z"
              style="fill-rule: nonzero;" data-astro-cid-wzmz5lif="" fill="#D20F39"></path>
            <path class="code-function"
              d="M1004.92,601.177l-41.559,-23.992c-2.258,-1.3 -3.466,-4.433 -2.7,-6.995c0.759,-2.563 3.209,-3.58 5.467,-2.28l41.554,23.992c2.259,1.308 3.471,4.438 2.704,7c-0.762,2.558 -3.212,3.579 -5.466,2.275Z"
              style="fill-rule: nonzero;" data-astro-cid-wzmz5lif="" fill="#D20F39"></path>
          </g>
          <g id="window-decorations" data-astro-cid-wzmz5lif="">
            <path id="max"
              d="M1314.75,501.702l-17.783,-10.271c-1.655,-0.954 -2.538,-3.241 -1.98,-5.116c0.559,-1.871 2.346,-2.613 4,-1.663l17.788,10.271c1.646,0.95 2.533,3.242 1.971,5.112c-0.559,1.875 -2.346,2.617 -3.996,1.667Z"
              style="fill-rule: nonzero;" data-astro-cid-wzmz5lif="" fill="#6C6F85"></path>
            <path id="min"
              d="M1348.67,521.285l-17.788,-10.266c-1.645,-0.95 -2.533,-3.242 -1.975,-5.113c0.559,-1.875 2.35,-2.616 4,-1.666l17.784,10.27c1.654,0.955 2.537,3.238 1.979,5.113c-0.558,1.871 -2.35,2.621 -4,1.662Z"
              style="fill-rule: nonzero;" data-astro-cid-wzmz5lif="" fill="#6C6F85"></path>
            <path id="close"
              d="M1365.35,530.927l-0.533,-0.321c-1.655,-0.954 -2.538,-3.241 -1.98,-5.112c0.559,-1.871 2.35,-2.617 4,-1.667l0.534,0.325c1.654,0.95 2.533,3.238 1.979,5.108c-0.558,1.871 -2.35,2.621 -4,1.667Z"
              style="fill-rule: nonzero;" data-astro-cid-wzmz5lif="" fill="#D20F39"></path>
          </g>
        </g>
      </g>
    </g>
  </g>
  <ellipse id="cup-shadow" cx="446.893" cy="648.9" rx="81.558" ry="46.78" style="" data-astro-cid-wzmz5lif=""
    fill="color(srgb 0.829804 0.812941 0.912549)"></ellipse>
  <g id="coffee" data-astro-cid-wzmz5lif="">
    <path id="cup-base"
      d="M516.544,604.44c-5.638,3.066 -11.767,5.658 -18.234,7.775c-14.458,4.733 -30.612,7.1 -46.766,7.1c-18.15,-0 -36.304,-2.988 -52.05,-8.967c-5.317,-2.017 -10.359,-4.375 -15.034,-7.075c-3.708,-2.142 -7.041,-4.413 -10.004,-6.792c-2.208,-1.771 -4.212,-3.6 -6.008,-5.479c-7.85,-8.208 -11.775,-17.333 -11.775,-26.454l-19.342,-225.129l0.004,-0c6.025,8.425 14.963,16.316 26.825,23.162c24.13,13.934 55.759,20.9 87.384,20.9c31.625,0 63.25,-6.966 87.379,-20.896c11.854,-6.841 20.792,-14.733 26.821,-23.15l-19.338,225.109c0,10.258 -4.958,20.516 -14.879,29.471c-1.975,1.787 -4.15,3.516 -6.517,5.187c-1.991,1.404 -4.12,2.763 -6.387,4.075c-0.071,0.038 -0.138,0.079 -0.208,0.117c-0.013,0.008 -0.03,0.016 -0.042,0.025c-0.054,0.033 -0.113,0.062 -0.167,0.096c-0.016,0.008 -0.033,0.019 -0.05,0.029c-0.054,0.029 -0.108,0.062 -0.166,0.091c-0.013,0.009 -0.027,0.017 -0.042,0.025c-0.058,0.034 -0.113,0.067 -0.171,0.096c-0.012,0.009 -0.029,0.017 -0.042,0.025c-0.062,0.038 -0.129,0.071 -0.191,0.109c-0.005,0.003 -0.012,0.004 -0.017,0.008c-0.071,0.042 -0.146,0.083 -0.217,0.121c-0.066,0.037 -0.137,0.075 -0.204,0.112c-0.026,0.017 -0.054,0.032 -0.083,0.046c-0.038,0.021 -0.075,0.042 -0.108,0.063c-0.042,0.02 -0.084,0.043 -0.121,0.066c-0.025,0.013 -0.05,0.025 -0.075,0.038c-0.047,0.029 -0.096,0.054 -0.146,0.079c-0.008,0.004 -0.021,0.012 -0.029,0.017Z"
      style="" data-astro-cid-wzmz5lif="" fill="url(&quot;#_Radial89&quot;)"></path>
    <g id="cup-lid" data-astro-cid-wzmz5lif="">
      <path id="lid-top-outer"
        d="M451.544,383.481c-31.625,0 -63.254,-6.966 -87.384,-20.9c-11.862,-6.846 -20.8,-14.737 -26.825,-23.162l-0.004,-0c-6.854,-9.584 -9.937,-19.85 -9.258,-30.05l-0.017,0.016l0.029,-0.329c0.042,-0.529 0.113,-1.046 0.167,-1.571l1.779,-16.783c1.184,16.317 12.163,32.5 32.963,45.367c0.004,-0 0.012,0.008 0.012,0.008c0.042,0.025 0.084,0.05 0.121,0.075c0.008,0.004 0.017,0.008 0.025,0.013c0.038,0.025 0.071,0.045 0.113,0.07c0.008,0.005 0.016,0.009 0.025,0.017c0.037,0.021 0.075,0.042 0.108,0.067c0.012,0.004 0.021,0.012 0.033,0.016c0.038,0.025 0.067,0.042 0.1,0.063c0.017,0.008 0.029,0.017 0.042,0.025c0.029,0.021 0.062,0.037 0.092,0.058c0.016,0.009 0.033,0.017 0.05,0.029c0.029,0.017 0.058,0.034 0.087,0.05c0.017,0.013 0.033,0.025 0.05,0.034c0.029,0.016 0.058,0.033 0.088,0.05c0.016,0.012 0.033,0.025 0.054,0.033c0.025,0.017 0.05,0.033 0.075,0.05c0.021,0.013 0.046,0.025 0.066,0.038c0.025,0.012 0.05,0.029 0.075,0.045c0.021,0.013 0.042,0.025 0.059,0.038c0.029,0.012 0.054,0.029 0.079,0.046c0.021,0.012 0.042,0.025 0.062,0.037c0.025,0.013 0.05,0.029 0.071,0.042c0.025,0.012 0.046,0.025 0.071,0.042c0.025,0.016 0.05,0.029 0.075,0.045c0.021,0.013 0.042,0.025 0.063,0.038c0.025,0.012 0.054,0.029 0.079,0.046c0.021,0.012 0.041,0.025 0.062,0.037c0.025,0.013 0.05,0.029 0.075,0.046c0.021,0.013 0.046,0.025 0.067,0.038c0.046,0.025 0.092,0.054 0.137,0.079c24.1,14.2 55.938,21.333 87.684,21.333c30.496,0 60.912,-6.583 84.3,-19.812c0.05,-0.03 0.096,-0.055 0.146,-0.084c0.008,-0.004 0.016,-0.008 0.02,-0.012c0.042,-0.021 0.084,-0.046 0.125,-0.071c0.009,-0.004 0.017,-0.008 0.025,-0.013c0.042,-0.025 0.08,-0.045 0.121,-0.07c0.004,-0.005 0.009,-0.005 0.017,-0.009c0.042,-0.025 0.083,-0.05 0.129,-0.075c0.004,0 0.008,-0.004 0.013,-0.008c0.045,-0.025 0.087,-0.05 0.133,-0.075c0.004,-0 0.004,-0 0.004,-0.004c0.046,-0.025 0.096,-0.054 0.142,-0.079c-0,-0 0.004,-0 0.004,-0.005c22.975,-13.262 34.708,-30.62 35.167,-48.129l1.804,18.242l0.033,0.346l0.021,0.204l-0.013,-0.017c0.784,10.325 -2.295,20.729 -9.241,30.429c-6.029,8.417 -14.967,16.309 -26.821,23.15c-24.129,13.93 -55.754,20.896 -87.379,20.896Zm70.137,-53.562c0.038,-0.021 0.071,-0.038 0.104,-0.059c-0.033,0.021 -0.066,0.038 -0.104,0.059Zm0.184,-0.104c0.062,-0.038 0.125,-0.071 0.187,-0.109c-0.062,0.038 -0.125,0.071 -0.187,0.109Zm0.204,-0.117c0.066,-0.038 0.133,-0.075 0.2,-0.113c-0.067,0.038 -0.134,0.075 -0.2,0.113Zm0.246,-0.138c0.07,-0.041 0.137,-0.079 0.204,-0.12c20.621,-11.905 30.396,-27.696 29.325,-43.288l-0,-0.012c1.075,15.595 -8.7,31.391 -29.325,43.3c-0.067,0.041 -0.138,0.079 -0.204,0.12Zm37.808,-72.129c-5.588,-6.412 -12.975,-12.454 -22.158,-17.866c-8.413,-4.959 -17.78,-9.055 -27.75,-12.288c9.683,3.1 18.787,7.021 27.004,11.763c9.575,5.529 17.208,11.754 22.904,18.391Z"
        style="" data-astro-cid-wzmz5lif="" fill="url(&quot;#_Linear91&quot;)"></path>
      <path id="lid-top-inner"
        d="M380.056,247.765c-0.004,0.004 -0.012,0.008 -0.016,0.012c-0.038,0.021 -0.071,0.042 -0.109,0.063c-0.004,0.004 -0.012,0.008 -0.016,0.008c0.047,-0.028 0.094,-0.056 0.141,-0.083Zm0.129,-0.076c0.081,-0.047 0.161,-0.094 0.242,-0.141c-0.004,0.004 -0.012,0.008 -0.017,0.012c-0.033,0.021 -0.066,0.038 -0.1,0.059c-0.008,0.004 -0.016,0.008 -0.029,0.016c-0.029,0.017 -0.062,0.038 -0.096,0.054Zm-0.129,0.076c0.043,-0.026 0.086,-0.051 0.129,-0.076c-0.008,0.009 -0.02,0.013 -0.029,0.021c-0.033,0.017 -0.066,0.038 -0.1,0.055Zm89.509,86.658l-36.05,-0c-2.525,-0 -4.755,1.654 -5.492,4.075l-1.821,5.983c-16.717,-2.508 -32.546,-7.483 -45.646,-15.046c-20.616,-11.904 -30.391,-27.7 -29.321,-43.291c0,0.046 0.005,0.087 0.009,0.129c-0.159,2.404 -0.054,4.817 0.304,7.212c0.004,-0.033 0.012,-0.066 0.017,-0.1c1.9,12.763 11.1,25.234 27.587,35.155c-25.183,-22.455 -20.771,-52.755 13.313,-72.43c12.82,-7.404 28.258,-12.387 44.587,-14.945c4.8,-0.405 9.642,-0.605 14.483,-0.605c1.738,0 3.471,0.025 5.205,0.08c14.083,0.416 28.045,2.541 40.875,6.37c8.97,2.675 17.383,6.184 24.904,10.525c10.521,6.071 18.212,13.159 23.079,20.713c3.179,4.929 5.154,10.058 5.929,15.237c0.363,-2.395 0.463,-4.804 0.308,-7.204c0.005,-0.046 0.005,-0.087 0.009,-0.129c1.071,15.592 -8.704,31.383 -29.325,43.288c-0.067,0.041 -0.134,0.079 -0.204,0.12c-0.017,0.009 -0.034,0.017 -0.046,0.025c-0.067,0.038 -0.134,0.075 -0.2,0.113c-0.004,0.004 -0.013,0.008 -0.017,0.008c-0.062,0.038 -0.125,0.071 -0.187,0.109c-0.025,0.016 -0.055,0.029 -0.08,0.045c-0.033,0.021 -0.066,0.038 -0.104,0.059c-12.929,7.291 -28.441,12.108 -44.808,14.562l-0.208,-0.683l-1.609,-5.3c-0.183,-0.608 -0.462,-1.167 -0.816,-1.663c-1.055,-1.483 -2.784,-2.412 -4.675,-2.412Zm-89.134,-86.875c0.042,-0.025 0.084,-0.05 0.125,-0.071c-0.033,0.021 -0.075,0.042 -0.108,0.063c-0.008,0.004 -0.013,0.008 -0.017,0.008Z"
        style="" data-astro-cid-wzmz5lif="" fill="url(&quot;#_Linear92&quot;)"></path>
      <path id="lid-top-inner-shadow"
        d="M379.152,328.54c-16.487,-9.921 -25.687,-22.392 -27.587,-35.155c2.004,-13.079 11.654,-25.837 28.991,-35.85c15.909,-9.183 35.821,-14.641 56.496,-16.37c-16.329,2.558 -31.767,7.541 -44.587,14.945c-34.084,19.675 -38.496,49.975 -13.313,72.43Zm-9.133,-73.917c0.004,-0.004 0.008,-0.008 0.012,-0.008c-0.004,0.004 -0.008,0.004 -0.012,0.008Zm0.087,-0.071c0.009,-0.004 0.017,-0.012 0.025,-0.017c-0.008,0.005 -0.016,0.013 -0.025,0.017Zm0.088,-0.067c0.012,-0.012 0.029,-0.025 0.046,-0.037c-0.017,0.012 -0.03,0.025 -0.046,0.037Zm0.096,-0.075c0.791,-0.629 1.608,-1.254 2.45,-1.866l0.004,-0.004c0.029,-0.021 0.058,-0.042 0.087,-0.063c0,0 0.004,-0.004 0.009,-0.004c0.02,-0.017 0.045,-0.033 0.066,-0.05c0.013,-0.013 0.025,-0.021 0.038,-0.029c0.016,-0.013 0.033,-0.021 0.05,-0.034c0.016,-0.012 0.033,-0.025 0.046,-0.033c0.016,-0.012 0.029,-0.025 0.045,-0.033c0.021,-0.017 0.038,-0.029 0.059,-0.042c0.008,-0.008 0.021,-0.017 0.033,-0.025c0.021,-0.017 0.042,-0.029 0.063,-0.046c0.008,-0.008 0.02,-0.012 0.029,-0.021c0.025,-0.016 0.054,-0.037 0.075,-0.054c0.004,-0.004 0.012,-0.008 0.016,-0.012c0.03,-0.021 0.055,-0.038 0.084,-0.059c0.004,-0.004 0.008,-0.008 0.012,-0.008c2.017,-1.437 4.171,-2.833 6.459,-4.179c-3.538,2.079 -6.742,4.271 -9.625,6.562Zm9.641,-6.57c0.038,-0.021 0.071,-0.042 0.109,-0.063c-0.038,0.021 -0.071,0.042 -0.109,0.063Zm0.125,-0.075c0.034,-0.017 0.067,-0.038 0.1,-0.055c-0.033,0.017 -0.066,0.038 -0.1,0.055Zm0.129,-0.075c0.034,-0.017 0.067,-0.038 0.096,-0.055c-0.029,0.017 -0.062,0.038 -0.096,0.055Zm0.125,-0.071c0.034,-0.021 0.067,-0.038 0.1,-0.059c-0.033,0.021 -0.066,0.038 -0.1,0.059Zm0.121,-0.071c0.042,-0.025 0.084,-0.05 0.125,-0.071c-0.041,0.021 -0.083,0.046 -0.125,0.071Z"
        style="" data-astro-cid-wzmz5lif="" fill="url(&quot;#_Linear93&quot;)"></path>
      <path id="lid-top-inner-border"
        d="M456.74,240.64c-1.734,-0.055 -3.467,-0.08 -5.205,-0.08c-4.841,0 -9.683,0.2 -14.483,0.605c-20.675,1.729 -40.587,7.187 -56.496,16.37c-17.337,10.013 -26.987,22.771 -28.991,35.85c-0.005,0.034 -0.013,0.067 -0.017,0.1c-0.358,-2.395 -0.463,-4.808 -0.304,-7.212l-0,0.037c0.712,-11.158 6.962,-22.22 18.775,-31.687c0.004,-0.004 0.008,-0.004 0.012,-0.008c0.025,-0.021 0.05,-0.042 0.075,-0.063c0.009,-0.004 0.017,-0.012 0.025,-0.017c0.021,-0.016 0.042,-0.037 0.063,-0.05c0.016,-0.012 0.029,-0.025 0.046,-0.037c0.016,-0.013 0.033,-0.025 0.05,-0.038c2.883,-2.291 6.087,-4.483 9.625,-6.562c0.004,-0 0.012,-0.004 0.016,-0.008c0.038,-0.021 0.071,-0.042 0.109,-0.063c0.004,-0.004 0.012,-0.008 0.016,-0.012c0.034,-0.017 0.067,-0.038 0.1,-0.055c0.009,-0.008 0.021,-0.012 0.029,-0.02c0.034,-0.017 0.067,-0.038 0.096,-0.055c0.013,-0.008 0.021,-0.012 0.029,-0.016c0.034,-0.021 0.067,-0.038 0.1,-0.059c0.005,-0.004 0.013,-0.008 0.017,-0.012c0.004,-0 0,0.004 0.004,-0c0.042,-0.025 0.084,-0.05 0.125,-0.071c0.409,-0.237 0.825,-0.475 1.238,-0.704c19.404,-10.829 44.504,-16.254 69.612,-16.271l0.129,0c14.25,0 28.5,1.742 41.709,5.221c10.612,2.796 20.546,6.717 29.275,11.758c3.583,2.067 6.837,4.25 9.762,6.529c12.317,9.605 18.825,20.9 19.554,32.305l0,-0.034c0.155,2.4 0.055,4.809 -0.308,7.204c-0.775,-5.179 -2.75,-10.308 -5.929,-15.237c-4.867,-7.554 -12.558,-14.642 -23.079,-20.713c-7.521,-4.341 -15.934,-7.85 -24.904,-10.525c-12.83,-3.829 -26.792,-5.954 -40.875,-6.37Z"
        style="" data-astro-cid-wzmz5lif="" fill="url(&quot;#_Linear94&quot;)"></path>
      <path id="lid-top-outer1"
        d="M361.949,335.414c-20.123,-12.758 -30.754,-28.671 -31.918,-44.712c-1.383,-19.071 10.617,-38.317 35.95,-52.65c22.121,-12.512 50.517,-19.079 79.329,-19.758c1.659,-0.038 3.317,-0.059 4.975,-0.059c12.284,0 24.58,1.067 36.438,3.2c8.083,1.455 15.962,3.405 23.492,5.842c9.97,3.233 19.337,7.329 27.75,12.288c9.183,5.412 16.57,11.454 22.158,17.866c8.975,10.309 13.308,21.579 13.017,32.8c-0.459,17.509 -12.192,34.867 -35.167,48.129c24.417,-14.095 36.117,-32.82 35.092,-51.433c-0.875,17.396 -12.855,34.567 -35.971,47.642c-23.388,13.233 -53.804,19.816 -84.304,19.816c-31.746,0 -63.58,-7.133 -87.68,-21.329c-22.483,-13.246 -34.158,-30.262 -35.1,-47.362c-0.89,17.704 9.722,35.634 31.939,49.72Zm87.286,-109.187c-24.916,0.325 -49.662,5.979 -68.679,16.958c-20.475,11.821 -30.237,27.475 -29.321,42.959c-1.07,15.591 8.705,31.387 29.321,43.291c13.1,7.563 28.929,12.538 45.646,15.046l1.821,-5.983c0.737,-2.421 2.967,-4.075 5.492,-4.075l36.05,-0c1.891,-0 3.62,0.929 4.675,2.412c0.354,0.496 0.633,1.055 0.816,1.663l1.609,5.3l0.208,0.683c16.367,-2.454 31.879,-7.271 44.808,-14.562c0.038,-0.021 0.071,-0.038 0.104,-0.059c0.025,-0.016 0.055,-0.029 0.08,-0.045c0.062,-0.038 0.125,-0.071 0.187,-0.109c0.004,0 0.013,-0.004 0.017,-0.008c0.066,-0.038 0.133,-0.075 0.2,-0.113c0.012,-0.008 0.029,-0.016 0.046,-0.025c0.066,-0.041 0.137,-0.079 0.204,-0.12c20.625,-11.909 30.4,-27.705 29.325,-43.3c0.908,-15.484 -8.85,-31.138 -29.325,-42.955c-9.296,-5.366 -19.963,-9.462 -31.35,-12.283c-12.621,-3.129 -26.125,-4.692 -39.634,-4.692c-0.766,0 -1.533,0.005 -2.3,0.017Zm13.075,115.55l-21.545,0c-1.505,0 -2.721,1.217 -2.721,2.721l-0,0.383c-0,1.504 1.216,2.721 2.721,2.721l21.545,0c1.5,0 2.721,-1.217 2.721,-2.721l0,-0.383c0,-0.738 -0.291,-1.408 -0.771,-1.896l0,-0.004c-0.004,-0.004 -0.012,-0.008 -0.016,-0.013c-0,-0.004 -0.004,-0.008 -0.009,-0.012c-0.004,-0 -0.004,-0.004 -0.008,-0.008l-0.004,-0c-0.004,-0.005 -0.008,-0.009 -0.013,-0.013l0,-0.004c-0.491,-0.475 -1.162,-0.771 -1.9,-0.771Zm-100.361,-6.363c0.345,0.219 0.694,0.438 1.045,0.655c-0.351,-0.217 -0.7,-0.436 -1.045,-0.655Zm138.397,-97.618c7.948,2.556 15.422,5.782 22.173,9.681c3.583,2.067 6.837,4.254 9.762,6.533c-2.925,-2.279 -6.179,-4.462 -9.762,-6.529c-6.752,-3.899 -14.224,-7.128 -22.173,-9.685Z"
        style="" data-astro-cid-wzmz5lif="" fill="url(&quot;#_Radial95&quot;)"></path>
      <path id="lid-shine"
        d="M522.519,243.185c20.55,11.863 30.308,27.588 29.316,43.13c-0.9,-14.113 -10.658,-28.063 -29.316,-38.838c-39.204,-22.633 -102.763,-22.633 -141.963,0c-18.654,10.771 -28.412,24.725 -29.312,38.833c-0.992,-15.537 8.762,-31.262 29.312,-43.125c39.2,-22.633 102.759,-22.633 141.963,0Zm14.575,91.384c23.116,-13.075 35.096,-30.246 35.971,-47.642c1.037,18.833 -10.955,37.783 -35.971,51.938c-47.734,27 -124.734,26.32 -171.984,-1.521c-24.37,-14.354 -36.029,-33.129 -35.1,-51.65c0.942,17.1 12.617,34.116 35.1,47.362c47.25,27.838 124.25,28.517 171.984,1.513Z"
        style="" data-astro-cid-wzmz5lif="" fill="#DCE0E8"></path>
      <g id="lid-hole" data-astro-cid-wzmz5lif="">
        <path id="hole-inner"
          d="M462.31,347.602l-21.545,0c-1.505,0 -2.721,-1.221 -2.721,-2.725l-0,-0.379c-0,-1.504 1.216,-2.721 2.721,-2.721l21.545,0c1.505,0 2.721,1.217 2.721,2.721l0,0.379c0,1.504 -1.216,2.725 -2.721,2.725Z"
          style="fill-rule: nonzero;" data-astro-cid-wzmz5lif="" fill="#27286F"></path>
        <path id="hole-border"
          d="M462.31,343.606l-21.545,0c-1.246,0 -2.255,0.859 -2.575,2l-0.146,-0.725l-0,-0.383c-0,-1.5 1.216,-2.721 2.721,-2.721l21.545,0c0.738,0 1.409,0.296 1.9,0.771l0,0.004c0.005,0.004 0.009,0.008 0.013,0.013l0.004,-0c0.004,0.004 0.004,0.008 0.008,0.008c0.005,0.004 0.009,0.008 0.009,0.012c0.004,0.005 0.012,0.009 0.016,0.013l0,0.004c0.48,0.492 0.771,1.158 0.771,1.896l0,0.383l-0.146,0.725c-0.32,-1.141 -1.329,-2 -2.575,-2Z"
          style="" data-astro-cid-wzmz5lif="" fill="url(&quot;#_Linear96&quot;)"></path>
      </g>
    </g>
    <path id="paw"
      d="M454.84,538.619c-2.646,9.941 -12.846,15.858 -22.784,13.212c-9.937,-2.641 -15.85,-12.841 -13.208,-22.783c2.642,-9.933 12.017,-12.75 21.954,-10.104c9.942,2.637 16.679,9.737 14.038,19.675Zm14.662,-19.617c-3.754,3.667 -8.546,3.192 -11.733,-0.062c-3.179,-3.259 -3.542,-8.063 0.204,-11.73c3.75,-3.662 10.879,-5.466 14.058,-2.212c3.184,3.258 1.217,10.342 -2.529,14.004Zm-19.479,-15.579c-0.921,5.162 -5.096,7.562 -9.579,6.767c-4.484,-0.796 -7.571,-4.492 -6.654,-9.655c0.916,-5.162 5.666,-10.775 10.15,-9.979c4.479,0.796 7.004,7.709 6.083,12.867Zm-24.004,-2.383c1.996,4.85 -0.242,9.116 -4.454,10.85c-4.209,1.733 -8.8,0.275 -10.796,-4.575c-1.992,-4.85 -1,-12.134 3.212,-13.867c4.209,-1.733 10.042,2.746 12.038,7.592Z"
      data-astro-cid-wzmz5lif="" fill="#EFF1F5"></path>
    <path id="steam"
      d="M445.31,218.294c-2.05,-4.213 -4.229,-8.804 -6.545,-13.821c-30.309,-65.608 2.125,-114.1 2.125,-114.1c-18.03,52.183 18.637,76.229 45.833,131.062c1.517,3.059 3,6.209 4.446,9.467c0.7,1.579 1.396,3.188 2.075,4.821c1.516,3.633 2.975,7.383 4.371,11.287c0.112,0.317 0.229,0.642 0.341,0.963c17.879,50.737 -6.283,77.125 -23.716,88.862c-3.838,2.588 -7.35,4.459 -10.017,5.73c-0.863,0.408 -1.638,0.754 -2.304,1.041c-1.729,0.742 -2.746,1.084 -2.746,1.084l-14.346,-0c0,-0 0.775,-0.346 2.075,-1.084c0.808,-0.454 1.821,-1.062 2.975,-1.829c2.504,-1.662 5.692,-4.079 8.954,-7.354c7.929,-7.95 16.313,-20.954 16.534,-40.5c0.27,-23.842 -3.505,-25.221 -18.625,-53.283c-1.642,-3.046 -3.417,-6.405 -5.334,-10.138c-0.575,-1.375 -1.429,-2.796 -2.171,-4.275c-1.254,-2.487 -2.558,-5.125 -3.925,-7.933Zm29.955,-83.475c-0,-0 -9.834,-26.042 -10.234,-34.029c0,-0 -6.779,-44.792 35.234,-89.93c-0,0 -37.155,82.988 -25,123.959Z"
      data-astro-cid-wzmz5lif="" fill="color(srgb 0.672941 0.59451 0.711373)"></path>
  </g>
  <defs data-astro-cid-wzmz5lif="">
    <linearGradient id="_Linear1" x1="0" y1="0" x2="1" y2="0" gradientUnits="userSpaceOnUse"
      gradientTransform="matrix(135.88,0,0,135.88,1694.3,1133.23)" data-astro-cid-wzmz5lif="">
      <stop offset="0" style="stop-color:var(--peach);stop-opacity:1" data-astro-cid-wzmz5lif=""></stop>
      <stop offset="1" style="stop-color:var(--red);stop-opacity:1" data-astro-cid-wzmz5lif=""></stop>
    </linearGradient>
    <linearGradient id="_Linear2" x1="0" y1="0" x2="1" y2="0" gradientUnits="userSpaceOnUse"
      gradientTransform="matrix(228.243,0,0,228.243,1508.26,947.006)" data-astro-cid-wzmz5lif="">
      <stop offset="0" style="stop-color:var(--peach);stop-opacity:1" data-astro-cid-wzmz5lif=""></stop>
      <stop offset="1" style="stop-color:var(--red);stop-opacity:1" data-astro-cid-wzmz5lif=""></stop>
    </linearGradient>
    <linearGradient id="_Linear3" x1="0" y1="0" x2="1" y2="0" gradientUnits="userSpaceOnUse"
      gradientTransform="matrix(228.243,0,0,228.243,3.15998,1023.47)" data-astro-cid-wzmz5lif="">
      <stop offset="0" style="stop-color:var(--peach);stop-opacity:1" data-astro-cid-wzmz5lif=""></stop>
      <stop offset="1" style="stop-color:var(--red);stop-opacity:1" data-astro-cid-wzmz5lif=""></stop>
    </linearGradient>
    <linearGradient id="_Linear4" x1="0" y1="0" x2="1" y2="0" gradientUnits="userSpaceOnUse"
      gradientTransform="matrix(316.963,-0.13018,0.138622,337.518,288.302,645.477)" data-astro-cid-wzmz5lif="">
      <stop offset="0" style="stop-color:var(--peach);stop-opacity:1" data-astro-cid-wzmz5lif=""></stop>
      <stop offset="1" style="stop-color:var(--red);stop-opacity:1" data-astro-cid-wzmz5lif=""></stop>
    </linearGradient>
    <linearGradient id="_Linear5" x1="0" y1="0" x2="1" y2="0" gradientUnits="userSpaceOnUse"
      gradientTransform="matrix(1218.16,0,0,1218.16,268.885,1008.84)" data-astro-cid-wzmz5lif="">
      <stop offset="0" style="stop-color:var(--peach);stop-opacity:1" data-astro-cid-wzmz5lif=""></stop>
      <stop offset="1" style="stop-color:var(--red);stop-opacity:1" data-astro-cid-wzmz5lif=""></stop>
    </linearGradient>
    <radialGradient id="_Radial6" cx="0" cy="0" r="1" gradientUnits="userSpaceOnUse"
      gradientTransform="matrix(1017.38,0,0,1017.38,372.694,854.119)" data-astro-cid-wzmz5lif="">
      <stop offset="0" style="stop-color:var(--yellow);stop-opacity:1" data-astro-cid-wzmz5lif=""></stop>
      <stop offset="0.3" style="stop-color:var(--pink);stop-opacity:1" data-astro-cid-wzmz5lif=""></stop>
      <stop offset="0.6" style="stop-color:var(--mauve);stop-opacity:1" data-astro-cid-wzmz5lif=""></stop>
      <stop offset="1" style="stop-color:var(--blended-base-laptop);stop-opacity:1" data-astro-cid-wzmz5lif=""></stop>
    </radialGradient>
    <radialGradient id="_Radial7" cx="0" cy="0" r="1" gradientUnits="userSpaceOnUse"
      gradientTransform="matrix(912.333,0,0,912.333,466.265,649.915)" data-astro-cid-wzmz5lif="">
      <stop offset="0" style="stop-color:var(--yellow);stop-opacity:1" data-astro-cid-wzmz5lif=""></stop>
      <stop offset="0.3" style="stop-color:var(--pink);stop-opacity:1" data-astro-cid-wzmz5lif=""></stop>
      <stop offset="0.6" style="stop-color:var(--mauve);stop-opacity:1" data-astro-cid-wzmz5lif=""></stop>
      <stop offset="1" style="stop-color:var(--blended-base-laptop);stop-opacity:1" data-astro-cid-wzmz5lif=""></stop>
    </radialGradient>
    <radialGradient id="_Radial84" cx="0" cy="0" r="1" gradientUnits="userSpaceOnUse"
      gradientTransform="matrix(930.4,0,0,930.4,941.748,106.941)" data-astro-cid-wzmz5lif="">
      <stop offset="0" style="stop-color:var(--pink);stop-opacity:1" data-astro-cid-wzmz5lif=""></stop>
      <stop offset="0.0" style="stop-color:var(--mauve);stop-opacity:1" data-astro-cid-wzmz5lif=""></stop>
      <stop offset="0.6" style="stop-color:var(--blended-base-laptop);stop-opacity:1" data-astro-cid-wzmz5lif=""></stop>
      <stop offset="1" style="stop-color:var(--mocha-base);stop-opacity:1" data-astro-cid-wzmz5lif=""></stop>
    </radialGradient>
    <radialGradient id="_Radial85" cx="0" cy="0" r="1" gradientUnits="userSpaceOnUse"
      gradientTransform="matrix(930.583,0,0,930.583,693.548,301.015)" data-astro-cid-wzmz5lif="">
      <stop offset="0" style="stop-color:var(--peach);stop-opacity:1" data-astro-cid-wzmz5lif=""></stop>
      <stop offset="0.2" style="stop-color:var(--pink);stop-opacity:1" data-astro-cid-wzmz5lif=""></stop>
      <stop offset="0.4" style="stop-color:var(--mauve);stop-opacity:1" data-astro-cid-wzmz5lif=""></stop>
      <stop offset="1" style="stop-color:var(--blended-base-laptop);stop-opacity:1" data-astro-cid-wzmz5lif=""></stop>
    </radialGradient>
    <linearGradient id="_Linear86" x1="0" y1="0" x2="1" y2="0" gradientUnits="userSpaceOnUse"
      gradientTransform="matrix(745.692,0,0,745.692,795.831,545.294)" data-astro-cid-wzmz5lif="">
      <stop offset="0" style="stop-color:color-mix(in srgb, var(--mocha-base), var(--latte-mauve) 10%);stop-opacity:1"
        data-astro-cid-wzmz5lif=""></stop>
      <stop offset="1" style="stop-color:color-mix(in srgb, var(--mocha-base), var(--latte-mauve) 20%);stop-opacity:1"
        data-astro-cid-wzmz5lif=""></stop>
    </linearGradient>
    <linearGradient id="_Linear87" x1="0" y1="0" x2="1" y2="0" gradientUnits="userSpaceOnUse"
      gradientTransform="matrix(893.666,0,0,745.692,663.214,545.404)" data-astro-cid-wzmz5lif="">
      <stop offset="0" style="stop-color:color-mix(in srgb, var(--mocha-base), var(--latte-mauve) 2%);stop-opacity:1"
        data-astro-cid-wzmz5lif=""></stop>
      <stop offset="1" style="stop-color:color-mix(in srgb, var(--mocha-base), var(--latte-mauve) 8%);stop-opacity:1"
        data-astro-cid-wzmz5lif=""></stop>
    </linearGradient>
    <radialGradient id="_Radial89" cx="0" cy="0" r="1" gradientUnits="userSpaceOnUse"
      gradientTransform="matrix(688.954,0,0,688.954,315.79,386.36)" data-astro-cid-wzmz5lif="">
      <stop offset="0" style="stop-color:var(--peach);stop-opacity:1" data-astro-cid-wzmz5lif=""></stop>
      <stop offset="0.1" style="stop-color:var(--pink);stop-opacity:1" data-astro-cid-wzmz5lif=""></stop>
      <stop offset="0.3" style="stop-color:var(--mauve);stop-opacity:1" data-astro-cid-wzmz5lif=""></stop>
      <stop offset="0.45" style="stop-color:var(--blended-base-laptop);stop-opacity:1" data-astro-cid-wzmz5lif="">
      </stop>
      <stop offset="1" style="stop-color:var(--blended-base-laptop);stop-opacity:1" data-astro-cid-wzmz5lif=""></stop>
    </radialGradient>
    <linearGradient id="_Linear91" x1="0" y1="0" x2="1" y2="0" gradientUnits="userSpaceOnUse"
      gradientTransform="matrix(247.122,0,0,247.122,327.981,301.015)" data-astro-cid-wzmz5lif="">
      <stop offset="0" style="stop-color:var(--peach);stop-opacity:1" data-astro-cid-wzmz5lif=""></stop>
      <stop offset="0.1" style="stop-color:var(--pink);stop-opacity:1" data-astro-cid-wzmz5lif=""></stop>
      <stop offset="0.4" style="stop-color:var(--mauve);stop-opacity:1" data-astro-cid-wzmz5lif=""></stop>
      <stop offset="0.7" style="stop-color:var(--blended-base-laptop);stop-opacity:1" data-astro-cid-wzmz5lif=""></stop>
      <stop offset="1" style="stop-color:var(--blended-base-laptop);stop-opacity:1" data-astro-cid-wzmz5lif=""></stop>
    </linearGradient>
    <linearGradient id="_Linear92" x1="0" y1="0" x2="1" y2="0" gradientUnits="userSpaceOnUse"
      gradientTransform="matrix(200.768,0,0,200.768,351.156,288.456)" data-astro-cid-wzmz5lif="">
      <stop offset="0" style="stop-color:var(--blended-base-laptop);stop-opacity:1" data-astro-cid-wzmz5lif=""></stop>
      <stop offset="1" style="stop-color:var(--mauve);stop-opacity:1" data-astro-cid-wzmz5lif=""></stop>
    </linearGradient>
    <linearGradient id="_Linear93" x1="0" y1="0" x2="1" y2="0" gradientUnits="userSpaceOnUse"
      gradientTransform="matrix(200.768,0,0,200.768,346.394,288.456)" data-astro-cid-wzmz5lif="">
      <stop offset="0" style="stop-color:var(--mocha-base);stop-opacity:1" data-astro-cid-wzmz5lif=""></stop>
      <stop offset="1" style="stop-color:var(--mocha-base);stop-opacity:1" data-astro-cid-wzmz5lif=""></stop>
    </linearGradient>
    <linearGradient id="_Linear94" x1="0" y1="0" x2="1" y2="0" gradientUnits="userSpaceOnUse"
      gradientTransform="matrix(253.135,0,0,253.135,351.173,261.993)" data-astro-cid-wzmz5lif="">
      <stop offset="0" style="stop-color:var(--mocha-base);stop-opacity:1" data-astro-cid-wzmz5lif=""></stop>
      <stop offset="0.2" style="stop-color:var(--blended-base-laptop);stop-opacity:1" data-astro-cid-wzmz5lif=""></stop>
      <stop offset="0.5" style="stop-color:var(--mauve);stop-opacity:1" data-astro-cid-wzmz5lif=""></stop>
      <stop offset="0.8" style="stop-color:var(--pink);stop-opacity:1" data-astro-cid-wzmz5lif=""></stop>
      <stop offset="1" style="stop-color:var(--peach);stop-opacity:1" data-astro-cid-wzmz5lif=""></stop>
    </linearGradient>
    <radialGradient id="_Radial95" cx="0" cy="0" r="1" gradientUnits="userSpaceOnUse"
      gradientTransform="matrix(450.688,0,0,450.688,297.14,231.096)" data-astro-cid-wzmz5lif="">
      <stop offset="0" style="stop-color:var(--peach);stop-opacity:1" data-astro-cid-wzmz5lif=""></stop>
      <stop offset="0.1" style="stop-color:var(--pink);stop-opacity:1" data-astro-cid-wzmz5lif=""></stop>
      <stop offset="0.2" style="stop-color:var(--mauve);stop-opacity:1" data-astro-cid-wzmz5lif=""></stop>
      <stop offset="0.7" style="stop-color:var(--blended-base-laptop);stop-opacity:1" data-astro-cid-wzmz5lif=""></stop>
      <stop offset="1" style="stop-color:var(--mocha-base);stop-opacity:1" data-astro-cid-wzmz5lif=""></stop>
    </radialGradient>
    <linearGradient id="_Linear96" x1="0" y1="0" x2="1" y2="0" gradientUnits="userSpaceOnUse"
      gradientTransform="matrix(35.0195,0,0,35.0195,435.652,343.69)" data-astro-cid-wzmz5lif="">
      <stop offset="0" style="stop-color:var(--blended-base-laptop);stop-opacity:1" data-astro-cid-wzmz5lif=""></stop>
      <stop offset="0.3" style="stop-color:var(--blended-base-laptop);stop-opacity:1" data-astro-cid-wzmz5lif=""></stop>
      <stop offset="0.5" style="stop-color:var(--mauve);stop-opacity:1" data-astro-cid-wzmz5lif=""></stop>
      <stop offset="0.7" style="stop-color:var(--pink);stop-opacity:1" data-astro-cid-wzmz5lif=""></stop>
      <stop offset="1" style="stop-color:var(--peach);stop-opacity:1" data-astro-cid-wzmz5lif=""></stop>
    </linearGradient>
    <linearGradient id="_Linear1" x1="0" y1="0" x2="1" y2="0" gradientUnits="userSpaceOnUse"
      gradientTransform="matrix(135.88,0,0,135.88,1694.3,1133.23)" data-astro-cid-wzmz5lif="">
      <stop offset="0" style="stop-color:var(--peach);stop-opacity:1" data-astro-cid-wzmz5lif=""></stop>
      <stop offset="1" style="stop-color:var(--red);stop-opacity:1" data-astro-cid-wzmz5lif=""></stop>
    </linearGradient>
    <linearGradient id="_Linear2" x1="0" y1="0" x2="1" y2="0" gradientUnits="userSpaceOnUse"
      gradientTransform="matrix(228.243,0,0,228.243,1508.26,947.006)" data-astro-cid-wzmz5lif="">
      <stop offset="0" style="stop-color:var(--peach);stop-opacity:1" data-astro-cid-wzmz5lif=""></stop>
      <stop offset="1" style="stop-color:var(--red);stop-opacity:1" data-astro-cid-wzmz5lif=""></stop>
    </linearGradient>
    <linearGradient id="_Linear3" x1="0" y1="0" x2="1" y2="0" gradientUnits="userSpaceOnUse"
      gradientTransform="matrix(228.243,0,0,228.243,3.15998,1023.47)" data-astro-cid-wzmz5lif="">
      <stop offset="0" style="stop-color:var(--peach);stop-opacity:1" data-astro-cid-wzmz5lif=""></stop>
      <stop offset="1" style="stop-color:var(--red);stop-opacity:1" data-astro-cid-wzmz5lif=""></stop>
    </linearGradient>
    <linearGradient id="_Linear4" x1="0" y1="0" x2="1" y2="0" gradientUnits="userSpaceOnUse"
      gradientTransform="matrix(316.963,-0.13018,0.138622,337.518,288.302,645.477)" data-astro-cid-wzmz5lif="">
      <stop offset="0" style="stop-color:var(--peach);stop-opacity:1" data-astro-cid-wzmz5lif=""></stop>
      <stop offset="1" style="stop-color:var(--red);stop-opacity:1" data-astro-cid-wzmz5lif=""></stop>
    </linearGradient>
    <linearGradient id="_Linear5" x1="0" y1="0" x2="1" y2="0" gradientUnits="userSpaceOnUse"
      gradientTransform="matrix(1218.16,0,0,1218.16,268.885,1008.84)" data-astro-cid-wzmz5lif="">
      <stop offset="0" style="stop-color:var(--peach);stop-opacity:1" data-astro-cid-wzmz5lif=""></stop>
      <stop offset="1" style="stop-color:var(--red);stop-opacity:1" data-astro-cid-wzmz5lif=""></stop>
    </linearGradient>
    <radialGradient id="_Radial6" cx="0" cy="0" r="1" gradientUnits="userSpaceOnUse"
      gradientTransform="matrix(1017.38,0,0,1017.38,372.694,854.119)" data-astro-cid-wzmz5lif="">
      <stop offset="0" style="stop-color:var(--yellow);stop-opacity:1" data-astro-cid-wzmz5lif=""></stop>
      <stop offset="0.3" style="stop-color:var(--pink);stop-opacity:1" data-astro-cid-wzmz5lif=""></stop>
      <stop offset="0.6" style="stop-color:var(--mauve);stop-opacity:1" data-astro-cid-wzmz5lif=""></stop>
      <stop offset="1" style="stop-color:var(--blended-base-laptop);stop-opacity:1" data-astro-cid-wzmz5lif=""></stop>
    </radialGradient>
    <radialGradient id="_Radial7" cx="0" cy="0" r="1" gradientUnits="userSpaceOnUse"
      gradientTransform="matrix(912.333,0,0,912.333,466.265,649.915)" data-astro-cid-wzmz5lif="">
      <stop offset="0" style="stop-color:var(--yellow);stop-opacity:1" data-astro-cid-wzmz5lif=""></stop>
      <stop offset="0.3" style="stop-color:var(--pink);stop-opacity:1" data-astro-cid-wzmz5lif=""></stop>
      <stop offset="0.6" style="stop-color:var(--mauve);stop-opacity:1" data-astro-cid-wzmz5lif=""></stop>
      <stop offset="1" style="stop-color:var(--blended-base-laptop);stop-opacity:1" data-astro-cid-wzmz5lif=""></stop>
    </radialGradient>
    <radialGradient id="_Radial84" cx="0" cy="0" r="1" gradientUnits="userSpaceOnUse"
      gradientTransform="matrix(930.4,0,0,930.4,941.748,106.941)" data-astro-cid-wzmz5lif="">
      <stop offset="0" style="stop-color:var(--pink);stop-opacity:1" data-astro-cid-wzmz5lif=""></stop>
      <stop offset="0.0" style="stop-color:var(--mauve);stop-opacity:1" data-astro-cid-wzmz5lif=""></stop>
      <stop offset="0.6" style="stop-color:var(--blended-base-laptop);stop-opacity:1" data-astro-cid-wzmz5lif=""></stop>
      <stop offset="1" style="stop-color:var(--mocha-base);stop-opacity:1" data-astro-cid-wzmz5lif=""></stop>
    </radialGradient>
    <radialGradient id="_Radial85" cx="0" cy="0" r="1" gradientUnits="userSpaceOnUse"
      gradientTransform="matrix(930.583,0,0,930.583,693.548,301.015)" data-astro-cid-wzmz5lif="">
      <stop offset="0" style="stop-color:var(--peach);stop-opacity:1" data-astro-cid-wzmz5lif=""></stop>
      <stop offset="0.2" style="stop-color:var(--pink);stop-opacity:1" data-astro-cid-wzmz5lif=""></stop>
      <stop offset="0.4" style="stop-color:var(--mauve);stop-opacity:1" data-astro-cid-wzmz5lif=""></stop>
      <stop offset="1" style="stop-color:var(--blended-base-laptop);stop-opacity:1" data-astro-cid-wzmz5lif=""></stop>
    </radialGradient>
    <linearGradient id="_Linear86" x1="0" y1="0" x2="1" y2="0" gradientUnits="userSpaceOnUse"
      gradientTransform="matrix(745.692,0,0,745.692,795.831,545.294)" data-astro-cid-wzmz5lif="">
      <stop offset="0" style="stop-color:color-mix(in srgb, var(--mocha-base), var(--latte-mauve) 10%);stop-opacity:1"
        data-astro-cid-wzmz5lif=""></stop>
      <stop offset="1" style="stop-color:color-mix(in srgb, var(--mocha-base), var(--latte-mauve) 20%);stop-opacity:1"
        data-astro-cid-wzmz5lif=""></stop>
    </linearGradient>
    <linearGradient id="_Linear87" x1="0" y1="0" x2="1" y2="0" gradientUnits="userSpaceOnUse"
      gradientTransform="matrix(893.666,0,0,745.692,663.214,545.404)" data-astro-cid-wzmz5lif="">
      <stop offset="0" style="stop-color:color-mix(in srgb, var(--mocha-base), var(--latte-mauve) 2%);stop-opacity:1"
        data-astro-cid-wzmz5lif=""></stop>
      <stop offset="1" style="stop-color:color-mix(in srgb, var(--mocha-base), var(--latte-mauve) 8%);stop-opacity:1"
        data-astro-cid-wzmz5lif=""></stop>
    </linearGradient>
    <radialGradient id="_Radial89" cx="0" cy="0" r="1" gradientUnits="userSpaceOnUse"
      gradientTransform="matrix(688.954,0,0,688.954,315.79,386.36)" data-astro-cid-wzmz5lif="">
      <stop offset="0" style="stop-color:var(--peach);stop-opacity:1" data-astro-cid-wzmz5lif=""></stop>
      <stop offset="0.1" style="stop-color:var(--pink);stop-opacity:1" data-astro-cid-wzmz5lif=""></stop>
      <stop offset="0.3" style="stop-color:var(--mauve);stop-opacity:1" data-astro-cid-wzmz5lif=""></stop>
      <stop offset="0.45" style="stop-color:var(--blended-base-laptop);stop-opacity:1" data-astro-cid-wzmz5lif="">
      </stop>
      <stop offset="1" style="stop-color:var(--blended-base-laptop);stop-opacity:1" data-astro-cid-wzmz5lif=""></stop>
    </radialGradient>
    <linearGradient id="_Linear91" x1="0" y1="0" x2="1" y2="0" gradientUnits="userSpaceOnUse"
      gradientTransform="matrix(247.122,0,0,247.122,327.981,301.015)" data-astro-cid-wzmz5lif="">
      <stop offset="0" style="stop-color:var(--peach);stop-opacity:1" data-astro-cid-wzmz5lif=""></stop>
      <stop offset="0.1" style="stop-color:var(--pink);stop-opacity:1" data-astro-cid-wzmz5lif=""></stop>
      <stop offset="0.4" style="stop-color:var(--mauve);stop-opacity:1" data-astro-cid-wzmz5lif=""></stop>
      <stop offset="0.7" style="stop-color:var(--blended-base-laptop);stop-opacity:1" data-astro-cid-wzmz5lif=""></stop>
      <stop offset="1" style="stop-color:var(--blended-base-laptop);stop-opacity:1" data-astro-cid-wzmz5lif=""></stop>
    </linearGradient>
    <linearGradient id="_Linear92" x1="0" y1="0" x2="1" y2="0" gradientUnits="userSpaceOnUse"
      gradientTransform="matrix(200.768,0,0,200.768,351.156,288.456)" data-astro-cid-wzmz5lif="">
      <stop offset="0" style="stop-color:var(--blended-base-laptop);stop-opacity:1" data-astro-cid-wzmz5lif=""></stop>
      <stop offset="1" style="stop-color:var(--mauve);stop-opacity:1" data-astro-cid-wzmz5lif=""></stop>
    </linearGradient>
    <linearGradient id="_Linear93" x1="0" y1="0" x2="1" y2="0" gradientUnits="userSpaceOnUse"
      gradientTransform="matrix(200.768,0,0,200.768,346.394,288.456)" data-astro-cid-wzmz5lif="">
      <stop offset="0" style="stop-color:var(--mocha-base);stop-opacity:1" data-astro-cid-wzmz5lif=""></stop>
      <stop offset="1" style="stop-color:var(--mocha-base);stop-opacity:1" data-astro-cid-wzmz5lif=""></stop>
    </linearGradient>
    <linearGradient id="_Linear94" x1="0" y1="0" x2="1" y2="0" gradientUnits="userSpaceOnUse"
      gradientTransform="matrix(253.135,0,0,253.135,351.173,261.993)" data-astro-cid-wzmz5lif="">
      <stop offset="0" style="stop-color:var(--mocha-base);stop-opacity:1" data-astro-cid-wzmz5lif=""></stop>
      <stop offset="0.2" style="stop-color:var(--blended-base-laptop);stop-opacity:1" data-astro-cid-wzmz5lif=""></stop>
      <stop offset="0.5" style="stop-color:var(--mauve);stop-opacity:1" data-astro-cid-wzmz5lif=""></stop>
      <stop offset="0.8" style="stop-color:var(--pink);stop-opacity:1" data-astro-cid-wzmz5lif=""></stop>
      <stop offset="1" style="stop-color:var(--peach);stop-opacity:1" data-astro-cid-wzmz5lif=""></stop>
    </linearGradient>
    <radialGradient id="_Radial95" cx="0" cy="0" r="1" gradientUnits="userSpaceOnUse"
      gradientTransform="matrix(450.688,0,0,450.688,297.14,231.096)" data-astro-cid-wzmz5lif="">
      <stop offset="0" style="stop-color:var(--peach);stop-opacity:1" data-astro-cid-wzmz5lif=""></stop>
      <stop offset="0.1" style="stop-color:var(--pink);stop-opacity:1" data-astro-cid-wzmz5lif=""></stop>
      <stop offset="0.2" style="stop-color:var(--mauve);stop-opacity:1" data-astro-cid-wzmz5lif=""></stop>
      <stop offset="0.7" style="stop-color:var(--blended-base-laptop);stop-opacity:1" data-astro-cid-wzmz5lif=""></stop>
      <stop offset="1" style="stop-color:var(--mocha-base);stop-opacity:1" data-astro-cid-wzmz5lif=""></stop>
    </radialGradient>
    <linearGradient id="_Linear96" x1="0" y1="0" x2="1" y2="0" gradientUnits="userSpaceOnUse"
      gradientTransform="matrix(35.0195,0,0,35.0195,435.652,343.69)" data-astro-cid-wzmz5lif="">
      <stop offset="0" style="stop-color:var(--blended-base-laptop);stop-opacity:1" data-astro-cid-wzmz5lif=""></stop>
      <stop offset="0.3" style="stop-color:var(--blended-base-laptop);stop-opacity:1" data-astro-cid-wzmz5lif=""></stop>
      <stop offset="0.5" style="stop-color:var(--mauve);stop-opacity:1" data-astro-cid-wzmz5lif=""></stop>
      <stop offset="0.7" style="stop-color:var(--pink);stop-opacity:1" data-astro-cid-wzmz5lif=""></stop>
      <stop offset="1" style="stop-color:var(--peach);stop-opacity:1" data-astro-cid-wzmz5lif=""></stop>
    </linearGradient>
  </defs>
</svg>